0
SECTION
    2
HEADER
  9
$ACADVER
  1
AC1021
  9
$ACADMAINTVER
 70
     1
  9
$DWGCODEPAGE
  3
ANSI_936
  9
$LASTSAVEDBY
  1
weipr
  9
$INSBASE
 10
0.0
 20
0.0
 30
0.0
  9
$EXTMIN
 10
559025.2772473241
 20
3371365.418178516
 30
0.0
  9
$EXTMAX
 10
559289.9744346583
 20
3371583.8204509085
 30
0.0
  9
$LIMMIN
 10
   559025.2772473241
 20
    3371365.418178516
  9
$LIMMAX
 10
   559289.9744346583
 20
   3371583.8204509085
  9
$ORTHOMODE
 70
     0
  9
$REGENMODE
 70
     1
  9
$FILLMODE
 70
     1
  9
$QTEXTMODE
 70
     0
  9
$MIRRTEXT
 70
     0
  9
$LTSCALE
 40
1.0
  9
$ATTMODE
 70
     1
  9
$TEXTSIZE
 40
2.5
  9
$TRACEWID
 40
1.0
  9
$TEXTSTYLE
  7
Standard
  9
$CLAYER
  8
0
  9
$CELTYPE
  6
ByLayer
  9
$CECOLOR
 62
   256
  9
$CELTSCALE
 40
1.0
  9
$DISPSILH
 70
     0
  9
$DIMSCALE
 40
1.0
  9
$DIMASZ
 40
2.5
  9
$DIMEXO
 40
0.625
  9
$DIMDLI
 40
3.75
  9
$DIMRND
 40
0.0
  9
$DIMDLE
 40
0.0
  9
$DIMEXE
 40
1.25
  9
$DIMTP
 40
0.0
  9
$DIMTM
 40
0.0
  9
$DIMTXT
 40
2.5
  9
$DIMCEN
 40
2.5
  9
$DIMTSZ
 40
0.0
  9
$DIMTOL
 70
     0
  9
$DIMLIM
 70
     0
  9
$DIMTIH
 70
     0
  9
$DIMTOH
 70
     0
  9
$DIMSE1
 70
     0
  9
$DIMSE2
 70
     0
  9
$DIMTAD
 70
     1
  9
$DIMZIN
 70
     8
  9
$DIMBLK
  1

  9
$DIMASO
 70
     1
  9
$DIMSHO
 70
     1
  9
$DIMPOST
  1

  9
$DIMAPOST
  1

  9
$DIMALT
 70
     0
  9
$DIMALTD
 70
     3
  9
$DIMALTF
 40
0.03937007874016
  9
$DIMLFAC
 40
1.0
  9
$DIMTOFL
 70
     1
  9
$DIMTVP
 40
0.0
  9
$DIMTIX
 70
     0
  9
$DIMSOXD
 70
     0
  9
$DIMSAH
 70
     0
  9
$DIMBLK1
  1

  9
$DIMBLK2
  1

  9
$DIMSTYLE
  2
ISO-25
  9
$DIMCLRD
 70
     0
  9
$DIMCLRE
 70
     0
  9
$DIMCLRT
 70
     0
  9
$DIMTFAC
 40
1.0
  9
$DIMGAP
 40
0.625
  9
$DIMJUST
 70
     0
  9
$DIMSD1
 70
     0
  9
$DIMSD2
 70
     0
  9
$DIMTOLJ
 70
     0
  9
$DIMTZIN
 70
     8
  9
$DIMALTZ
 70
     0
  9
$DIMALTTZ
 70
     0
  9
$DIMUPT
 70
     0
  9
$DIMDEC
 70
     2
  9
$DIMTDEC
 70
     2
  9
$DIMALTU
 70
     2
  9
$DIMALTTD
 70
     3
  9
$DIMTXSTY
  7
Standard
  9
$DIMAUNIT
 70
     0
  9
$DIMADEC
 70
     0
  9
$DIMALTRND
 40
0.0
  9
$DIMAZIN
 70
     0
  9
$DIMDSEP
 70
    44
  9
$DIMATFIT
 70
     3
  9
$DIMFRAC
 70
     0
  9
$DIMLDRBLK
  1

  9
$DIMLUNIT
 70
     2
  9
$DIMLWD
 70
    -2
  9
$DIMLWE
 70
    -2
  9
$DIMTMOVE
 70
     0
  9
$DIMFXL
 40
1.0
  9
$DIMFXLON
 70
     0
  9
$DIMJOGANG
 40
0.7853981633974483
  9
$DIMTFILL
 70
     0
  9
$DIMTFILLCLR
 70
     0
  9
$DIMARCSYM
 70
     0
  9
$DIMLTYPE
  6

  9
$DIMLTEX1
  6

  9
$DIMLTEX2
  6

  9
$LUNITS
 70
     2
  9
$LUPREC
 70
     4
  9
$SKETCHINC
 40
1.0
  9
$FILLETRAD
 40
0.0
  9
$AUNITS
 70
     0
  9
$AUPREC
 70
     0
  9
$MENU
  1
.
  9
$ELEVATION
 40
0.0
  9
$PELEVATION
 40
0.0
  9
$THICKNESS
 40
0.0
  9
$LIMCHECK
 70
     0
  9
$CHAMFERA
 40
0.0
  9
$CHAMFERB
 40
0.0
  9
$CHAMFERC
 40
0.0
  9
$CHAMFERD
 40
0.0
  9
$SKPOLY
 70
     0
  9
$TDCREATE
 40
2458625.679572616
  9
$TDUCREATE
 40
2458625.346239283
  9
$TDUPDATE
 40
2458625.680757025
  9
$TDUUPDATE
 40
2458625.347423692
  9
$TDINDWG
 40
0.0011858218
  9
$TDUSRTIMER
 40
0.0011856829
  9
$USRTIMER
 70
     1
  9
$ANGBASE
 50
0.0
  9
$ANGDIR
 70
     0
  9
$PDMODE
 70
   32
  9
$PDSIZE
 40
   0.1
  9
$PLINEWID
 40
0.0
  9
$SPLFRAME
 70
     0
  9
$SPLINETYPE
 70
     6
  9
$SPLINESEGS
 70
     8
  9
$HANDSEED
  5
145
  9
$SURFTAB1
 70
     6
  9
$SURFTAB2
 70
     6
  9
$SURFTYPE
 70
     6
  9
$SURFU
 70
     6
  9
$SURFV
 70
     6
  9
$UCSBASE
  2

  9
$UCSNAME
  2

  9
$UCSORG
 10
0.0
 20
0.0
 30
0.0
  9
$UCSXDIR
 10
1.0
 20
0.0
 30
0.0
  9
$UCSYDIR
 10
0.0
 20
1.0
 30
0.0
  9
$UCSORTHOREF
  2

  9
$UCSORTHOVIEW
 70
     0
  9
$UCSORGTOP
 10
0.0
 20
0.0
 30
0.0
  9
$UCSORGBOTTOM
 10
0.0
 20
0.0
 30
0.0
  9
$UCSORGLEFT
 10
0.0
 20
0.0
 30
0.0
  9
$UCSORGRIGHT
 10
0.0
 20
0.0
 30
0.0
  9
$UCSORGFRONT
 10
0.0
 20
0.0
 30
0.0
  9
$UCSORGBACK
 10
0.0
 20
0.0
 30
0.0
  9
$PUCSBASE
  2

  9
$PUCSNAME
  2

  9
$PUCSORG
 10
0.0
 20
0.0
 30
0.0
  9
$PUCSXDIR
 10
1.0
 20
0.0
 30
0.0
  9
$PUCSYDIR
 10
0.0
 20
1.0
 30
0.0
  9
$PUCSORTHOREF
  2

  9
$PUCSORTHOVIEW
 70
     0
  9
$PUCSORGTOP
 10
0.0
 20
0.0
 30
0.0
  9
$PUCSORGBOTTOM
 10
0.0
 20
0.0
 30
0.0
  9
$PUCSORGLEFT
 10
0.0
 20
0.0
 30
0.0
  9
$PUCSORGRIGHT
 10
0.0
 20
0.0
 30
0.0
  9
$PUCSORGFRONT
 10
0.0
 20
0.0
 30
0.0
  9
$PUCSORGBACK
 10
0.0
 20
0.0
 30
0.0
  9
$USERI1
 70
     0
  9
$USERI2
 70
     0
  9
$USERI3
 70
     0
  9
$USERI4
 70
     0
  9
$USERI5
 70
     0
  9
$USERR1
 40
0.0
  9
$USERR2
 40
0.0
  9
$USERR3
 40
0.0
  9
$USERR4
 40
0.0
  9
$USERR5
 40
0.0
  9
$WORLDVIEW
 70
     1
  9
$SHADEDGE
 70
     3
  9
$SHADEDIF
 70
    70
  9
$TILEMODE
 70
     1
  9
$MAXACTVP
 70
    64
  9
$PINSBASE
 10
0.0
 20
0.0
 30
0.0
  9
$PLIMCHECK
 70
     0
  9
$PEXTMIN
 10
0.0
 20
0.0
 30
0.0
  9
$PEXTMAX
 10
0.0
 20
0.0
 30
0.0
  9
$PLIMMIN
 10
0.0
 20
0.0
  9
$PLIMMAX
 10
12.0
 20
9.0
  9
$UNITMODE
 70
     0
  9
$VISRETAIN
 70
     1
  9
$PLINEGEN
 70
     0
  9
$PSLTSCALE
 70
     1
  9
$TREEDEPTH
 70
  3020
  9
$CMLSTYLE
  2
Standard
  9
$CMLJUST
 70
     0
  9
$CMLSCALE
 40
20.0
  9
$PROXYGRAPHICS
 70
     1
  9
$MEASUREMENT
 70
     1
  9
$CELWEIGHT
370
    -1
  9
$ENDCAPS
280
     0
  9
$JOINSTYLE
280
     0
  9
$LWDISPLAY
290
     0
  9
$INSUNITS
 70
     6
  9
$HYPERLINKBASE
  1

  9
$STYLESHEET
  1

  9
$XEDIT
290
     1
  9
$CEPSNTYPE
380
     0
  9
$PSTYLEMODE
290
     1
  9
$FINGERPRINTGUID
  2
{2AC7E0E4-7C2A-4627-B11C-92F59123D98D}
  9
$VERSIONGUID
  2
{8E64B4BF-28C8-4402-A7FE-0784D3C687C6}
  9
$EXTNAMES
290
     1
  9
$PSVPSCALE
 40
0.0
  9
$OLESTARTUP
290
     0
  9
$SORTENTS
280
   127
  9
$INDEXCTL
280
     0
  9
$HIDETEXT
280
     1
  9
$XCLIPFRAME
290
     0
  9
$HALOGAP
280
     0
  9
$OBSCOLOR
 70
   257
  9
$OBSLTYPE
280
     0
  9
$INTERSECTIONDISPLAY
280
     0
  9
$INTERSECTIONCOLOR
 70
   257
  9
$DIMASSOC
280
     2
  9
$PROJECTNAME
  1

  9
$CAMERADISPLAY
290
     0
  9
$LENSLENGTH
 40
50.0
  9
$CAMERAHEIGHT
 40
0.0
  9
$STEPSPERSEC
 40
2.0
  9
$STEPSIZE
 40
6.0
  9
$3DDWFPREC
 40
2.0
  9
$PSOLWIDTH
 40
5.0
  9
$PSOLHEIGHT
 40
80.0
  9
$LOFTANG1
 40
1.570796326794896
  9
$LOFTANG2
 40
1.570796326794896
  9
$LOFTMAG1
 40
0.0
  9
$LOFTMAG2
 40
0.0
  9
$LOFTPARAM
 70
     7
  9
$LOFTNORMALS
280
     1
  9
$LATITUDE
 40
37.795
  9
$LONGITUDE
 40
-122.394
  9
$NORTHDIRECTION
 40
0.0
  9
$TIMEZONE
 70
 -8000
  9
$LIGHTGLYPHDISPLAY
280
     1
  9
$TILEMODELIGHTSYNCH
280
     1
  9
$CMATERIAL
347
ED
  9
$SOLIDHIST
280
     1
  9
$SHOWHIST
280
     1
  9
$DWFFRAME
280
     2
  9
$DGNFRAME
280
     0
  9
$REALWORLDSCALE
290
     1
  9
$INTERFERECOLOR
 62
     1
  9
$INTERFEREOBJVS
345
FA
  9
$INTERFEREVPVS
346
F7
  9
$CSHADOW
280
     0
  9
$SHADOWPLANELOCATION
 40
0.0
  0
ENDSEC
  0
SECTION
  2
CLASSES
  0
CLASS
  1
ACDBDICTIONARYWDFLT
  2
AcDbDictionaryWithDefault
  3
ObjectDBX Classes
 90
        0
 91
        1
280
     0
281
     0
  0
CLASS
  1
DICTIONARYVAR
  2
AcDbDictionaryVar
  3
ObjectDBX Classes
 90
        0
 91
        3
280
     0
281
     0
  0
CLASS
  1
TABLESTYLE
  2
AcDbTableStyle
  3
ObjectDBX Classes
 90
     4095
 91
        1
280
     0
281
     0
  0
CLASS
  1
MATERIAL
  2
AcDbMaterial
  3
ObjectDBX Classes
 90
     1024
 91
        3
280
     0
281
     0
  0
CLASS
  1
VISUALSTYLE
  2
AcDbVisualStyle
  3
ObjectDBX Classes
 90
     4095
 91
       16
280
     0
281
     0
0
ENDSEC
0
SECTION
2
TABLES
0
TABLE
  2
VPORT
  5
8
330
0
100
AcDbSymbolTable
 70
     1
  0
VPORT
  5
EB
330
8
100
AcDbSymbolTableRecord
100
AcDbViewportTableRecord
  2
*Active
 70
     0
 10
0.0
 20
0.0
 11
1.0
 21
1.0
12
   559157.6258409913
22
   3371474.6193147125
 13
0.0
 23
0.0
 14
10.0
 24
10.0
 15
10.0
 25
10.0
 16
0.0
 26
0.0
 36
1.0
 17
0.0
 27
0.0
 37
0.0
 40
327.603408588795
 41
2.19952774498229
 42
50.0
 43
0.0
 44
0.0
 50
0.0
 51
0.0
 71
     0
 72
  1000
 73
     1
 74
     3
 75
     0
 76
     0
 77
     0
 78
     0
281
     0
 65
     1
110
0.0
120
0.0
130
0.0
111
1.0
121
0.0
131
0.0
112
0.0
122
1.0
132
0.0
 79
     0
146
0.0
348
F6
 60
     2
 61
     5
292
     1
282
     1
141
0.0
142
0.0
 63
   250
421
  3355443
0
ENDTAB
  0
TABLE
  2
LTYPE
  5
5
330
0
100
AcDbSymbolTable
 70
     1
  0
LTYPE
  5
14
330
5
100
AcDbSymbolTableRecord
100
AcDbLinetypeTableRecord
  2
ByBlock
 70
     0
  3

 72
    65
 73
     0
 40
0.0
  0
LTYPE
  5
15
330
5
100
AcDbSymbolTableRecord
100
AcDbLinetypeTableRecord
  2
ByLayer
 70
     0
  3

 72
    65
 73
     0
 40
0.0  
0
LTYPE
  5
16
330
5
100
AcDbSymbolTableRecord
100
AcDbLinetypeTableRecord
  2
Continuous
 70
     0
  3
Solid line
 72
    65
 73
     0
 40
0.0
  0
ENDTAB
  0
TABLE
  2
LAYER
  5
2
102
{ACAD_XDICTIONARY
360
12D
102
}
330
0
100
AcDbSymbolTable
 70
     3
  0
LAYER
  5
10
330
2
100
AcDbSymbolTableRecord
100
AcDbLayerTableRecord
  2
0
 70
     0
 62
     7
  6
Continuous
370
    -3
390
F
347
EF
  0
LAYER
  5
258
330
2
100
AcDbSymbolTableRecord
100
AcDbLayerTableRecord
  2
PointName
 70
   0
 62
   4
   6
Continuous
370
    -3
390
F
347
EF
  0
LAYER
  5
259
330
2
100
AcDbSymbolTableRecord
100
AcDbLayerTableRecord
  2
Point
 70
   0
 62
   7
   6
Continuous
370
    -3
390
F
347
EF
  0
ENDTAB
  0
TABLE
  2
STYLE
  5
3
330
0
100
AcDbSymbolTable
 70
     3
  0
STYLE
  5
11
330
3
100
AcDbSymbolTableRecord
100
AcDbTextStyleTableRecord
  2
Standard
 70
     0
 40
0.0
 41
1.0
 50
0.0
 71
     0
 42
2.5
  3
txt
  4
gbcbig.shx
  0
STYLE
  5
12A
330
3
100
AcDbSymbolTableRecord
100
AcDbTextStyleTableRecord
  2
宋体
 70
     0
 40
0.0
 41
1.0
 50
0.0
 71
     0
 42
0.2
  3

  4

1001
ACAD
1000
SimSun
1071
    34306
  0
ENDTAB
  0
TABLE
  2
VIEW
  5
6
330
0
100
AcDbSymbolTable
 70
     0
0
ENDTAB
  0
TABLE
  2
UCS
  5
7
330
0
100
AcDbSymbolTable
 70
     0
0
ENDTAB
  0
TABLE
  2
APPID
  5
9
330
0
100
AcDbSymbolTable
 70
     3
  0
APPID
  5
12
330
9
100
AcDbSymbolTableRecord
100
AcDbRegAppTableRecord
  2
ACAD
 70
     0
  0
APPID
  5
9E
330
9
100
AcDbSymbolTableRecord
100
AcDbRegAppTableRecord
  2
ACAD_PSEXT
 70
     0
  0
APPID
  5
12C
330
9
100
AcDbSymbolTableRecord
100
AcDbRegAppTableRecord
  2
WEIPIRU
 70
     0
  0
ENDTAB
  0
TABLE
  2
DIMSTYLE
  5
A
330
0
100
AcDbSymbolTable
 70
     2
100
AcDbDimStyleTable
 71
     1
340
27
  0
DIMSTYLE
105
27
330
A
100
AcDbSymbolTableRecord
100
AcDbDimStyleTableRecord
  2
ISO-25
 70
     0
 41
2.5
 42
0.625
 43
3.75
 44
1.25
 73
     0
 74
     0
 77
     1
 78
     8
140
2.5
141
2.5
143
0.03937007874016
147
0.625
171
     3
172
     1
271
     2
272
     2
274
     3
278
    44
283
     0
284
     8
340
11
  0
DIMSTYLE
105
12B
330
A
100
AcDbSymbolTableRecord
100
AcDbDimStyleTableRecord
  2
STANDARD
 70
     0
340
11
  0
ENDTAB
  0
TABLE
  2
BLOCK_RECORD
  5
1
330
0
100
AcDbSymbolTable
 70
     4
  0
BLOCK_RECORD
  5
1F
330
1
100
AcDbSymbolTableRecord
100
AcDbBlockTableRecord
  2
*Model_Space
340
22
 70
     0
280
     1
281
     0
  0
BLOCK_RECORD
  5
D2
330
1
100
AcDbSymbolTableRecord
100
AcDbBlockTableRecord
  2
*Paper_Space
340
D3
 70
     0
280
     1
281
     0
  0
BLOCK_RECORD
  5
D6
330
1
100
AcDbSymbolTableRecord
100
AcDbBlockTableRecord
  2
*Paper_Space0
340
D7
 70
     0
280
     1
281
     0
  0
ENDTAB
0
ENDSEC
0
SECTION
  2
BLOCKS
0
BLOCK
5
20
330
1F
100
AcDbEntity
8
0
100
AcDbBlockBegin
2
*Model_Space
70
0
10
0.0
20
0.0
30
0.0
3
*Model_Space
1

0
ENDBLK
5
21
330
1F
100
AcDbEntity
8
0
100
AcDbBlockEnd
0
BLOCK
5
D4
330
D2
100
AcDbEntity
67
1
8
0
100
AcDbBlockBegin
2
*Paper_Space
70
0
10
0.0
20
0.0
30
0.0
3
*Paper_Space
1

0
ENDBLK
5
D5
330
D2
100
AcDbEntity
67
1
8
0
100
AcDbBlockEnd
0
BLOCK
5
D8
330
D6
100
AcDbEntity
67
1
8
0
100
AcDbBlockBegin
2
*Paper_Space0
70
0
10
0.0
20
0.0
30
0.0
3
*Paper_Space0
1

0
ENDBLK
5
D9
330
D6
100
AcDbEntity
67
1
8
0
100
AcDbBlockEnd
0
ENDSEC
0
SECTION
2
ENTITIES
   0
POINT
  5
25a
330
25b
100
AcDbEntity
   8
Point
60
   0
62
256
100
AcDbPoint
 10
559035.5111886914
 20
3371480.1220097695
 30
31.144695281982422
   0
POINT
  5
25c
330
25d
100
AcDbEntity
   8
Point
60
   0
62
256
100
AcDbPoint
 10
559025.2772473241
 20
3371365.418178516
 30
31.320932388305664
   0
POINT
  5
25e
330
25f
100
AcDbEntity
   8
Point
60
   0
62
256
100
AcDbPoint
 10
559184.0839493506
 20
3371541.8726288057
 30
26.865734100341797
   0
POINT
  5
260
330
261
100
AcDbEntity
   8
Point
60
   0
62
256
100
AcDbPoint
 10
559183.4516678908
 20
3371533.5687897615
 30
26.847335815429688
   0
POINT
  5
262
330
263
100
AcDbEntity
   8
Point
60
   0
62
256
100
AcDbPoint
 10
559184.0752453984
 20
3371524.5943159014
 30
26.843719482421875
   0
POINT
  5
264
330
265
100
AcDbEntity
   8
Point
60
   0
62
256
100
AcDbPoint
 10
559184.7035973741
 20
3371515.474260598
 30
26.831466674804688
   0
POINT
  5
266
330
267
100
AcDbEntity
   8
Point
60
   0
62
256
100
AcDbPoint
 10
559185.3374697935
 20
3371506.358039587
 30
26.828777313232422
   0
POINT
  5
268
330
269
100
AcDbEntity
   8
Point
60
   0
62
256
100
AcDbPoint
 10
559185.9874321015
 20
3371497.238974506
 30
26.86359214782715
   0
POINT
  5
26a
330
26b
100
AcDbEntity
   8
Point
60
   0
62
256
100
AcDbPoint
 10
559186.7331598597
 20
3371486.674305734
 30
26.88592529296875
   0
POINT
  5
26c
330
26d
100
AcDbEntity
   8
Point
60
   0
62
256
100
AcDbPoint
 10
559187.9040905768
 20
3371469.8860827703
 30
26.85659408569336
   0
POINT
  5
26e
330
26f
100
AcDbEntity
   8
Point
60
   0
62
256
100
AcDbPoint
 10
559189.5365974397
 20
3371446.778881387
 30
26.850191116333008
   0
POINT
  5
270
330
271
100
AcDbEntity
   8
Point
60
   0
62
256
100
AcDbPoint
 10
559190.1620785124
 20
3371441.737383919
 30
26.85651206970215
   0
POINT
  5
272
330
273
100
AcDbEntity
   8
Point
60
   0
62
256
100
AcDbPoint
 10
559192.8329856882
 20
3371432.5997009985
 30
26.87939453125
   0
POINT
  5
274
330
275
100
AcDbEntity
   8
Point
60
   0
62
256
100
AcDbPoint
 10
559194.3607273638
 20
3371429.22498697
 30
26.859439849853516
   0
POINT
  5
276
330
277
100
AcDbEntity
   8
Point
60
   0
62
256
100
AcDbPoint
 10
559199.2803017446
 20
3371421.5042788177
 30
26.856369018554688
   0
POINT
  5
278
330
279
100
AcDbEntity
   8
Point
60
   0
62
256
100
AcDbPoint
 10
559206.4139427058
 20
3371414.225825768
 30
26.861286163330078
   0
POINT
  5
27a
330
27b
100
AcDbEntity
   8
Point
60
   0
62
256
100
AcDbPoint
 10
559214.585162372
 20
3371408.8921378762
 30
26.87240219116211
   0
POINT
  5
27c
330
27d
100
AcDbEntity
   8
Point
60
   0
62
256
100
AcDbPoint
 10
559220.6950856759
 20
3371406.2961424706
 30
26.867361068725586
   0
POINT
  5
27e
330
27f
100
AcDbEntity
   8
Point
60
   0
62
256
100
AcDbPoint
 10
559228.9503405314
 20
3371404.2987046624
 30
26.875492095947266
   0
POINT
  5
280
330
281
100
AcDbEntity
   8
Point
60
   0
62
256
100
AcDbPoint
 10
559238.0171563684
 20
3371403.8624824015
 30
26.875194549560547
   0
POINT
  5
282
330
283
100
AcDbEntity
   8
Point
60
   0
62
256
100
AcDbPoint
 10
559247.8118946975
 20
3371405.4460952324
 30
26.880172729492188
   0
POINT
  5
284
330
285
100
AcDbEntity
   8
Point
60
   0
62
256
100
AcDbPoint
 10
559256.7658311938
 20
3371408.9370808895
 30
26.899885177612305
   0
POINT
  5
286
330
287
100
AcDbEntity
   8
Point
60
   0
62
256
100
AcDbPoint
 10
559264.1471444791
 20
3371413.6733325776
 30
26.899070739746094
   0
POINT
  5
288
330
289
100
AcDbEntity
   8
Point
60
   0
62
256
100
AcDbPoint
 10
559269.2318505376
 20
3371418.2888858863
 30
26.889354705810547
   0
POINT
  5
28a
330
28b
100
AcDbEntity
   8
Point
60
   0
62
256
100
AcDbPoint
 10
559274.0993869213
 20
3371424.446356894
 30
26.89208221435547
   0
POINT
  5
28c
330
28d
100
AcDbEntity
   8
Point
60
   0
62
256
100
AcDbPoint
 10
559277.706956516
 20
3371430.9107342064
 30
26.87955093383789
   0
POINT
  5
28e
330
28f
100
AcDbEntity
   8
Point
60
   0
62
256
100
AcDbPoint
 10
559280.2092456508
 20
3371437.8461706284
 30
26.876279830932617
   0
POINT
  5
290
330
291
100
AcDbEntity
   8
Point
60
   0
62
256
100
AcDbPoint
 10
559281.4432679293
 20
3371444.05817547
 30
26.8814697265625
   0
POINT
  5
292
330
293
100
AcDbEntity
   8
Point
60
   0
62
256
100
AcDbPoint
 10
559281.8298176886
 20
3371449.3737352337
 30
26.891010284423828
   0
POINT
  5
294
330
295
100
AcDbEntity
   8
Point
60
   0
62
256
100
AcDbPoint
 10
559281.6645076821
 20
3371453.9146744558
 30
26.894386291503906
   0
POINT
  5
296
330
297
100
AcDbEntity
   8
Point
60
   0
62
256
100
AcDbPoint
 10
559280.3493061413
 20
3371472.8229172067
 30
26.88759422302246
   0
POINT
  5
298
330
299
100
AcDbEntity
   8
Point
60
   0
62
256
100
AcDbPoint
 10
559278.9640881039
 20
3371492.5481933514
 30
26.876977920532227
   0
POINT
  5
29a
330
29b
100
AcDbEntity
   8
Point
60
   0
62
256
100
AcDbPoint
 10
559276.9272570348
 20
3371521.6456549293
 30
26.87325096130371
   0
POINT
  5
29c
330
29d
100
AcDbEntity
   8
Point
60
   0
62
256
100
AcDbPoint
 10
559275.7608197803
 20
3371538.0044746185
 30
26.854312896728516
   0
POINT
  5
29e
330
29f
100
AcDbEntity
   8
Point
60
   0
62
256
100
AcDbPoint
 10
559275.1642307194
 20
3371542.623042426
 30
26.87678337097168
   0
POINT
  5
2a0
330
2a1
100
AcDbEntity
   8
Point
60
   0
62
256
100
AcDbPoint
 10
559274.2220823384
 20
3371546.669739309
 30
26.862943649291992
   0
POINT
  5
2a2
330
2a3
100
AcDbEntity
   8
Point
60
   0
62
256
100
AcDbPoint
 10
559273.121925234
 20
3371550.0940548964
 30
26.856922149658203
   0
POINT
  5
2a4
330
2a5
100
AcDbEntity
   8
Point
60
   0
62
256
100
AcDbPoint
 10
559271.794741409
 20
3371553.3551411834
 30
26.853816986083984
   0
POINT
  5
2a6
330
2a7
100
AcDbEntity
   8
Point
60
   0
62
256
100
AcDbPoint
 10
559270.9625678036
 20
3371555.0685614906
 30
26.856121063232422
   0
POINT
  5
2a8
330
2a9
100
AcDbEntity
   8
Point
60
   0
62
256
100
AcDbPoint
 10
559268.4870933892
 20
3371559.4147336637
 30
26.863265991210938
   0
POINT
  5
2aa
330
2ab
100
AcDbEntity
   8
Point
60
   0
62
256
100
AcDbPoint
 10
559266.3359770034
 20
3371562.438840731
 30
26.85885238647461
   0
POINT
  5
2ac
330
2ad
100
AcDbEntity
   8
Point
60
   0
62
256
100
AcDbPoint
 10
559262.6760053617
 20
3371566.6444203593
 30
26.868484497070312
   0
POINT
  5
2ae
330
2af
100
AcDbEntity
   8
Point
60
   0
62
256
100
AcDbPoint
 10
559259.0994356012
 20
3371569.9210195094
 30
26.88532257080078
   0
POINT
  5
2b0
330
2b1
100
AcDbEntity
   8
Point
60
   0
62
256
100
AcDbPoint
 10
559253.4527172735
 20
3371573.897136451
 30
26.865203857421875
   0
POINT
  5
2b2
330
2b3
100
AcDbEntity
   8
Point
60
   0
62
256
100
AcDbPoint
 10
559248.2221143442
 20
3371576.592923219
 30
26.849884033203125
   0
POINT
  5
2b4
330
2b5
100
AcDbEntity
   8
Point
60
   0
62
256
100
AcDbPoint
 10
559239.8910573584
 20
3371579.339530257
 30
26.846818923950195
   0
POINT
  5
2b6
330
2b7
100
AcDbEntity
   8
Point
60
   0
62
256
100
AcDbPoint
 10
559231.912669249
 20
3371580.4146954264
 30
26.860610961914062
   0
POINT
  5
2b8
330
2b9
100
AcDbEntity
   8
Point
60
   0
62
256
100
AcDbPoint
 10
559225.453215627
 20
3371580.2759020594
 30
26.85610580444336
   0
POINT
  5
2ba
330
2bb
100
AcDbEntity
   8
Point
60
   0
62
256
100
AcDbPoint
 10
559216.5127935666
 20
3371578.542484788
 30
26.857425689697266
   0
POINT
  5
2bc
330
2bd
100
AcDbEntity
   8
Point
60
   0
62
256
100
AcDbPoint
 10
559208.0053791496
 20
3371575.055373868
 30
26.884302139282227
   0
POINT
  5
2be
330
2bf
100
AcDbEntity
   8
Point
60
   0
62
256
100
AcDbPoint
 10
559198.9100450518
 20
3371568.715562438
 30
26.86933708190918
   0
POINT
  5
2c0
330
2c1
100
AcDbEntity
   8
Point
60
   0
62
256
100
AcDbPoint
 10
559194.8280163385
 20
3371564.567323561
 30
26.882335662841797
   0
POINT
  5
2c2
330
2c3
100
AcDbEntity
   8
Point
60
   0
62
256
100
AcDbPoint
 10
559192.4873935378
 20
3371561.642125321
 30
26.897727966308594
   0
POINT
  5
2c4
330
2c5
100
AcDbEntity
   8
Point
60
   0
62
256
100
AcDbPoint
 10
559189.538577411
 20
3371557.1027030614
 30
26.875062942504883
   0
POINT
  5
2c6
330
2c7
100
AcDbEntity
   8
Point
60
   0
62
256
100
AcDbPoint
 10
559181.5204181655
 20
3371560.9165008157
 30
26.8135986328125
   0
POINT
  5
2c8
330
2c9
100
AcDbEntity
   8
Point
60
   0
62
256
100
AcDbPoint
 10
559187.0431975754
 20
3371551.9809118276
 30
26.889698028564453
   0
POINT
  5
2ca
330
2cb
100
AcDbEntity
   8
Point
60
   0
62
256
100
AcDbPoint
 10
559185.2001110443
 20
3371546.7163387993
 30
26.872600555419922
   0
POINT
  5
2cc
330
2cd
100
AcDbEntity
   8
Point
60
   0
62
256
100
AcDbPoint
 10
559194.0921558869
 20
3371537.1419142033
 30
26.737112045288086
   0
POINT
  5
2ce
330
2cf
100
AcDbEntity
   8
Point
60
   0
62
256
100
AcDbPoint
 10
559195.1277960566
 20
3371542.0417556376
 30
26.76104736328125
   0
POINT
  5
2d0
330
2d1
100
AcDbEntity
   8
Point
60
   0
62
256
100
AcDbPoint
 10
559196.1701619962
 20
3371501.6675915993
 30
26.764846801757812
   0
POINT
  5
2d2
330
2d3
100
AcDbEntity
   8
Point
60
   0
62
256
100
AcDbPoint
 10
559198.7891366344
 20
3371489.6708452404
 30
26.770883560180664
   0
POINT
  5
2d4
330
2d5
100
AcDbEntity
   8
Point
60
   0
62
256
100
AcDbPoint
 10
559198.5928971815
 20
3371467.676264343
 30
26.751848220825195
   0
POINT
  5
2d6
330
2d7
100
AcDbEntity
   8
Point
60
   0
62
256
100
AcDbPoint
 10
559172.2653814534
 20
3371450.4100976684
 30
31.22991371154785
   0
POINT
  5
2d8
330
2d9
100
AcDbEntity
   8
Point
60
   0
62
256
100
AcDbPoint
 10
559167.603730036
 20
3371525.0757428543
 30
31.197851181030273
   0
POINT
  5
2da
330
2db
100
AcDbEntity
   8
Point
60
   0
62
256
100
AcDbPoint
 10
559178.0934219288
 20
3371525.168541933
 30
26.79033088684082
   0
POINT
  5
2dc
330
2dd
100
AcDbEntity
   8
Point
60
   0
62
256
100
AcDbPoint
 10
559183.3656273469
 20
3371451.115439021
 30
26.811058044433594
   0
POINT
  5
2de
330
2df
100
AcDbEntity
   8
Point
60
   0
62
256
100
AcDbPoint
 10
559199.273673746
 20
3371457.782302389
 30
26.800155639648438
   0
POINT
  5
2e0
330
2e1
100
AcDbEntity
   8
Point
60
   0
62
256
100
AcDbPoint
 10
559199.9763997671
 20
3371447.906502197
 30
26.789920806884766
   0
POINT
  5
2e2
330
2e3
100
AcDbEntity
   8
Point
60
   0
62
256
100
AcDbPoint
 10
559200.4597476189
 20
3371443.8056619484
 30
26.788930892944336
   0
POINT
  5
2e4
330
2e5
100
AcDbEntity
   8
Point
60
   0
62
256
100
AcDbPoint
 10
559202.4713181858
 20
3371437.282333069
 30
26.739578247070312
   0
POINT
  5
2e6
330
2e7
100
AcDbEntity
   8
Point
60
   0
62
256
100
AcDbPoint
 10
559202.2923511398
 20
3371437.1748036775
 30
26.76291847229004
   0
POINT
  5
2e8
330
2e9
100
AcDbEntity
   8
Point
60
   0
62
256
100
AcDbPoint
 10
559203.5425179948
 20
3371434.438829494
 30
26.746295928955078
   0
POINT
  5
2ea
330
2eb
100
AcDbEntity
   8
Point
60
   0
62
256
100
AcDbPoint
 10
559205.6725629789
 20
3371430.593330244
 30
26.814037322998047
   0
POINT
  5
2ec
330
2ed
100
AcDbEntity
   8
Point
60
   0
62
256
100
AcDbPoint
 10
559209.0426750986
 20
3371426.2254089913
 30
26.81071662902832
   0
POINT
  5
2ee
330
2ef
100
AcDbEntity
   8
Point
60
   0
62
256
100
AcDbPoint
 10
559212.9413656355
 20
3371422.469501643
 30
26.806703567504883
   0
POINT
  5
2f0
330
2f1
100
AcDbEntity
   8
Point
60
   0
62
256
100
AcDbPoint
 10
559219.3520222495
 20
3371418.186591473
 30
26.810054779052734
   0
POINT
  5
2f2
330
2f3
100
AcDbEntity
   8
Point
60
   0
62
256
100
AcDbPoint
 10
559227.4940999909
 20
3371415.202375433
 30
26.81241798400879
   0
POINT
  5
2f4
330
2f5
100
AcDbEntity
   8
Point
60
   0
62
256
100
AcDbPoint
 10
559238.0589003016
 20
3371414.3597395206
 30
26.811227798461914
   0
POINT
  5
2f6
330
2f7
100
AcDbEntity
   8
Point
60
   0
62
256
100
AcDbPoint
 10
559236.4591562878
 20
3371399.1310527334
 30
27.116146087646484
   0
POINT
  5
2f8
330
2f9
100
AcDbEntity
   8
Point
60
   0
62
256
100
AcDbPoint
 10
559236.4801286584
 20
3371398.3902067565
 30
27.139728546142578
   0
POINT
  5
2fa
330
2fb
100
AcDbEntity
   8
Point
60
   0
62
256
100
AcDbPoint
 10
559235.0478451974
 20
3371398.266621478
 30
27.144458770751953
   0
POINT
  5
2fc
330
2fd
100
AcDbEntity
   8
Point
60
   0
62
256
100
AcDbPoint
 10
559235.1751799985
 20
3371396.4110580003
 30
27.156702041625977
   0
POINT
  5
2fe
330
2ff
100
AcDbEntity
   8
Point
60
   0
62
256
100
AcDbPoint
 10
559236.6298814628
 20
3371396.464930527
 30
27.185205459594727
   0
POINT
  5
300
330
301
100
AcDbEntity
   8
Point
60
   0
62
256
100
AcDbPoint
 10
559236.6910896829
 20
3371395.915870068
 30
27.138399124145508
   0
POINT
  5
302
330
303
100
AcDbEntity
   8
Point
60
   0
62
256
100
AcDbPoint
 10
559242.0691734272
 20
3371399.5667160354
 30
27.10785484313965
   0
POINT
  5
304
330
305
100
AcDbEntity
   8
Point
60
   0
62
256
100
AcDbPoint
 10
559242.1269080262
 20
3371398.8150383057
 30
27.107540130615234
   0
POINT
  5
306
330
307
100
AcDbEntity
   8
Point
60
   0
62
256
100
AcDbPoint
 10
559243.5582383769
 20
3371398.904588351
 30
27.11876106262207
   0
POINT
  5
308
330
309
100
AcDbEntity
   8
Point
60
   0
62
256
100
AcDbPoint
 10
559243.7912737083
 20
3371397.12978719
 30
27.15247917175293
   0
POINT
  5
30a
330
30b
100
AcDbEntity
   8
Point
60
   0
62
256
100
AcDbPoint
 10
559242.4080248526
 20
3371396.8328480264
 30
27.158315658569336
   0
POINT
  5
30c
330
30d
100
AcDbEntity
   8
Point
60
   0
62
256
100
AcDbPoint
 10
559242.3475298663
 20
3371396.316834825
 30
27.117618560791016
   0
POINT
  5
30e
330
30f
100
AcDbEntity
   8
Point
60
   0
62
256
100
AcDbPoint
 10
559239.5494567066
 20
3371397.8747352585
 30
28.029571533203125
   0
POINT
  5
310
330
311
100
AcDbEntity
   8
Point
60
   0
62
256
100
AcDbPoint
 10
559247.7280455643
 20
3371416.387383214
 30
26.81808853149414
   0
POINT
  5
312
330
313
100
AcDbEntity
   8
Point
60
   0
62
256
100
AcDbPoint
 10
559227.2945249681
 20
3371439.081556559
 30
26.84926414489746
   0
POINT
  5
314
330
315
100
AcDbEntity
   8
Point
60
   0
62
256
100
AcDbPoint
 10
559232.5512422436
 20
3371439.5882050563
 30
26.83588218688965
   0
POINT
  5
316
330
317
100
AcDbEntity
   8
Point
60
   0
62
256
100
AcDbPoint
 10
559232.2687253031
 20
3371436.524820489
 30
26.84364128112793
   0
POINT
  5
318
330
319
100
AcDbEntity
   8
Point
60
   0
62
256
100
AcDbPoint
 10
559240.8965568363
 20
3371437.0920619066
 30
26.863595962524414
   0
POINT
  5
31a
330
31b
100
AcDbEntity
   8
Point
60
   0
62
256
100
AcDbPoint
 10
559240.3104000461
 20
3371439.9646336487
 30
26.887922286987305
   0
POINT
  5
31c
330
31d
100
AcDbEntity
   8
Point
60
   0
62
256
100
AcDbPoint
 10
559256.4299345664
 20
3371441.194662326
 30
26.815671920776367
   0
POINT
  5
31e
330
31f
100
AcDbEntity
   8
Point
60
   0
62
256
100
AcDbPoint
 10
559257.9766221539
 20
3371422.126180577
 30
26.81644630432129
   0
POINT
  5
320
330
321
100
AcDbEntity
   8
Point
60
   0
62
256
100
AcDbPoint
 10
559262.9723464159
 20
3371426.9906005547
 30
26.81615447998047
   0
POINT
  5
322
330
323
100
AcDbEntity
   8
Point
60
   0
62
256
100
AcDbPoint
 10
559267.2499127495
 20
3371433.337929286
 30
26.823192596435547
   0
POINT
  5
324
330
325
100
AcDbEntity
   8
Point
60
   0
62
256
100
AcDbPoint
 10
559269.6830459321
 20
3371439.1625851067
 30
26.75212287902832
   0
POINT
  5
326
330
327
100
AcDbEntity
   8
Point
60
   0
62
256
100
AcDbPoint
 10
559270.5288293826
 20
3371442.2166067204
 30
26.74850845336914
   0
POINT
  5
328
330
329
100
AcDbEntity
   8
Point
60
   0
62
256
100
AcDbPoint
 10
559270.2439631412
 20
3371442.2139727324
 30
26.763507843017578
   0
POINT
  5
32a
330
32b
100
AcDbEntity
   8
Point
60
   0
62
256
100
AcDbPoint
 10
559271.2477827952
 20
3371447.646132444
 30
26.75851821899414
   0
POINT
  5
32c
330
32d
100
AcDbEntity
   8
Point
60
   0
62
256
100
AcDbPoint
 10
559271.2602154152
 20
3371452.6030376926
 30
26.76432991027832
   0
POINT
  5
32e
330
32f
100
AcDbEntity
   8
Point
60
   0
62
256
100
AcDbPoint
 10
559270.5269797782
 20
3371463.2411915287
 30
26.75175666809082
   0
POINT
  5
330
330
331
100
AcDbEntity
   8
Point
60
   0
62
256
100
AcDbPoint
 10
559268.325552389
 20
3371494.651919187
 30
26.75971794128418
   0
POINT
  5
332
330
333
100
AcDbEntity
   8
Point
60
   0
62
256
100
AcDbPoint
 10
559266.5886926678
 20
3371494.6056457683
 30
26.7707462310791
   0
POINT
  5
334
330
335
100
AcDbEntity
   8
Point
60
   0
62
256
100
AcDbPoint
 10
559266.5939969161
 20
3371494.6159077543
 30
26.777141571044922
   0
POINT
  5
336
330
337
100
AcDbEntity
   8
Point
60
   0
62
256
100
AcDbPoint
 10
559265.4275369203
 20
3371536.0657125474
 30
26.79806137084961
   0
POINT
  5
338
330
339
100
AcDbEntity
   8
Point
60
   0
62
256
100
AcDbPoint
 10
559264.5758635388
 20
3371542.1050156616
 30
26.7723331451416
   0
POINT
  5
33a
330
33b
100
AcDbEntity
   8
Point
60
   0
62
256
100
AcDbPoint
 10
559263.072734178
 20
3371547.1332779215
 30
26.76265525817871
   0
POINT
  5
33c
330
33d
100
AcDbEntity
   8
Point
60
   0
62
256
100
AcDbPoint
 10
559262.8897913254
 20
3371546.955643893
 30
26.760589599609375
   0
POINT
  5
33e
330
33f
100
AcDbEntity
   8
Point
60
   0
62
256
100
AcDbPoint
 10
559261.8549959578
 20
3371549.865729606
 30
26.752079010009766
   0
POINT
  5
340
330
341
100
AcDbEntity
   8
Point
60
   0
62
256
100
AcDbPoint
 10
559260.3779147848
 20
3371552.618434364
 30
26.837127685546875
   0
POINT
  5
342
330
343
100
AcDbEntity
   8
Point
60
   0
62
256
100
AcDbPoint
 10
559257.3468771899
 20
3371556.9167070882
 30
26.83196449279785
   0
POINT
  5
344
330
345
100
AcDbEntity
   8
Point
60
   0
62
256
100
AcDbPoint
 10
559250.7634732913
 20
3371563.1548095965
 30
26.80339813232422
   0
POINT
  5
346
330
347
100
AcDbEntity
   8
Point
60
   0
62
256
100
AcDbPoint
 10
559253.5103217694
 20
3371554.291078425
 30
26.7584171295166
   0
POINT
  5
348
330
349
100
AcDbEntity
   8
Point
60
   0
62
256
100
AcDbPoint
 10
559253.00810847
 20
3371552.2409063615
 30
26.772993087768555
   0
POINT
  5
34a
330
34b
100
AcDbEntity
   8
Point
60
   0
62
256
100
AcDbPoint
 10
559253.0881142702
 20
3371553.2884082138
 30
26.75739288330078
   0
POINT
  5
34c
330
34d
100
AcDbEntity
   8
Point
60
   0
62
256
100
AcDbPoint
 10
559236.6275690933
 20
3371551.076829437
 30
26.80625343322754
   0
POINT
  5
34e
330
34f
100
AcDbEntity
   8
Point
60
   0
62
256
100
AcDbPoint
 10
559236.596671257
 20
3371553.392176192
 30
26.805835723876953
   0
POINT
  5
350
330
351
100
AcDbEntity
   8
Point
60
   0
62
256
100
AcDbPoint
 10
559237.3569271091
 20
3371557.9935269663
 30
26.78093910217285
   0
POINT
  5
352
330
353
100
AcDbEntity
   8
Point
60
   0
62
256
100
AcDbPoint
 10
559239.4775171238
 20
3371562.73159263
 30
26.773475646972656
   0
POINT
  5
354
330
355
100
AcDbEntity
   8
Point
60
   0
62
256
100
AcDbPoint
 10
559241.862244085
 20
3371567.867461564
 30
26.803178787231445
   0
POINT
  5
356
330
357
100
AcDbEntity
   8
Point
60
   0
62
256
100
AcDbPoint
 10
559237.3946494481
 20
3371569.150504713
 30
26.807353973388672
   0
POINT
  5
358
330
359
100
AcDbEntity
   8
Point
60
   0
62
256
100
AcDbPoint
 10
559229.9978694808
 20
3371569.9957477446
 30
26.80954360961914
   0
POINT
  5
35a
330
35b
100
AcDbEntity
   8
Point
60
   0
62
256
100
AcDbPoint
 10
559226.5497936897
 20
3371569.845377689
 30
26.80950355529785
   0
POINT
  5
35c
330
35d
100
AcDbEntity
   8
Point
60
   0
62
256
100
AcDbPoint
 10
559221.3225414944
 20
3371568.9988196767
 30
26.813533782958984
   0
POINT
  5
35e
330
35f
100
AcDbEntity
   8
Point
60
   0
62
256
100
AcDbPoint
 10
559217.0437330952
 20
3371567.6572951227
 30
26.821853637695312
   0
POINT
  5
360
330
361
100
AcDbEntity
   8
Point
60
   0
62
256
100
AcDbPoint
 10
559212.4075286172
 20
3371565.501087583
 30
26.814289093017578
   0
POINT
  5
362
330
363
100
AcDbEntity
   8
Point
60
   0
62
256
100
AcDbPoint
 10
559207.162395466
 20
3371561.960346626
 30
26.81759262084961
   0
POINT
  5
364
330
365
100
AcDbEntity
   8
Point
60
   0
62
256
100
AcDbPoint
 10
559202.7353726672
 20
3371557.689092091
 30
26.804967880249023
   0
POINT
  5
366
330
367
100
AcDbEntity
   8
Point
60
   0
62
256
100
AcDbPoint
 10
559199.4286694713
 20
3371553.220832502
 30
26.8070068359375
   0
POINT
  5
368
330
369
100
AcDbEntity
   8
Point
60
   0
62
256
100
AcDbPoint
 10
559196.5938378798
 20
3371547.6799036274
 30
26.79779052734375
   0
POINT
  5
36a
330
36b
100
AcDbEntity
   8
Point
60
   0
62
256
100
AcDbPoint
 10
559195.6610761045
 20
3371545.123688861
 30
26.748687744140625
   0
POINT
  5
36c
330
36d
100
AcDbEntity
   8
Point
60
   0
62
256
100
AcDbPoint
 10
559194.9009172488
 20
3371542.420602062
 30
26.751646041870117
   0
POINT
  5
36e
330
36f
100
AcDbEntity
   8
Point
60
   0
62
256
100
AcDbPoint
 10
559204.0667198356
 20
3371548.7652287735
 30
26.746614456176758
   0
POINT
  5
370
330
371
100
AcDbEntity
   8
Point
60
   0
62
256
100
AcDbPoint
 10
559203.8385691359
 20
3371549.7172885006
 30
26.7403564453125
   0
POINT
  5
372
330
373
100
AcDbEntity
   8
Point
60
   0
62
256
100
AcDbPoint
 10
559203.2924243258
 20
3371550.69155945
 30
26.746530532836914
   0
POINT
  5
374
330
375
100
AcDbEntity
   8
Point
60
   0
62
256
100
AcDbPoint
 10
559216.1041934143
 20
3371561.0495811882
 30
26.78097915649414
   0
POINT
  5
376
330
377
100
AcDbEntity
   8
Point
60
   0
62
256
100
AcDbPoint
 10
559217.8427284195
 20
3371558.553175745
 30
26.781272888183594
   0
POINT
  5
378
330
379
100
AcDbEntity
   8
Point
60
   0
62
256
100
AcDbPoint
 10
559219.5899304812
 20
3371554.7294741957
 30
26.79313087463379
   0
POINT
  5
37a
330
37b
100
AcDbEntity
   8
Point
60
   0
62
256
100
AcDbPoint
 10
559220.5021203829
 20
3371549.955444575
 30
26.843645095825195
   0
POINT
  5
37c
330
37d
100
AcDbEntity
   8
Point
60
   0
62
256
100
AcDbPoint
 10
559216.4082406355
 20
3371543.5728046545
 30
26.860578536987305
   0
POINT
  5
37e
330
37f
100
AcDbEntity
   8
Point
60
   0
62
256
100
AcDbPoint
 10
559225.1667624546
 20
3371544.0647027236
 30
26.8741512298584
   0
POINT
  5
380
330
381
100
AcDbEntity
   8
Point
60
   0
62
256
100
AcDbPoint
 10
559224.4514200563
 20
3371547.1713427464
 30
26.838388442993164
   0
POINT
  5
382
330
383
100
AcDbEntity
   8
Point
60
   0
62
256
100
AcDbPoint
 10
559233.082094288
 20
3371547.7526139636
 30
26.87739372253418
   0
POINT
  5
384
330
385
100
AcDbEntity
   8
Point
60
   0
62
256
100
AcDbPoint
 10
559232.8403168406
 20
3371544.6231285166
 30
26.91602325439453
   0
POINT
  5
386
330
387
100
AcDbEntity
   8
Point
60
   0
62
256
100
AcDbPoint
 10
559241.0881390815
 20
3371545.362806629
 30
26.857561111450195
   0
POINT
  5
388
330
389
100
AcDbEntity
   8
Point
60
   0
62
256
100
AcDbPoint
 10
559278.961012668
 20
3371571.3598542255
 30
26.747602462768555
   0
POINT
  5
38a
330
38b
100
AcDbEntity
   8
Point
60
   0
62
256
100
AcDbPoint
 10
559262.329243461
 20
3371579.106379621
 30
26.79918098449707
   0
POINT
  5
38c
330
38d
100
AcDbEntity
   8
Point
60
   0
62
256
100
AcDbPoint
 10
559244.9920895948
 20
3371583.1939448235
 30
26.79546546936035
   0
POINT
  5
38e
330
38f
100
AcDbEntity
   8
Point
60
   0
62
256
100
AcDbPoint
 10
559223.729482763
 20
3371583.5704509085
 30
26.815650939941406
   0
POINT
  5
390
330
391
100
AcDbEntity
   8
Point
60
   0
62
256
100
AcDbPoint
 10
559201.6633909324
 20
3371578.6756005036
 30
26.788333892822266
   0
POINT
  5
392
330
393
100
AcDbEntity
   8
Point
60
   0
62
256
100
AcDbPoint
 10
559184.3704414082
 20
3371570.3479238837
 30
26.784835815429688
   0
POINT
  5
394
330
395
100
AcDbEntity
   8
Point
60
   0
62
256
100
AcDbPoint
 10
559175.3016048772
 20
3371563.936800529
 30
26.828371047973633
   0
POINT
  5
396
330
397
100
AcDbEntity
   8
Point
60
   0
62
256
100
AcDbPoint
 10
559186.0030800862
 20
3371412.951616627
 30
26.78087615966797
   0
POINT
  5
398
330
399
100
AcDbEntity
   8
Point
60
   0
62
256
100
AcDbPoint
 10
559194.2403129621
 20
3371408.690570096
 30
26.769046783447266
   0
POINT
  5
39a
330
39b
100
AcDbEntity
   8
Point
60
   0
62
256
100
AcDbPoint
 10
559207.6918022402
 20
3371403.7397441543
 30
26.800151824951172
   0
POINT
  5
39c
330
39d
100
AcDbEntity
   8
Point
60
   0
62
256
100
AcDbPoint
 10
559229.4929376886
 20
3371400.358445473
 30
26.795927047729492
   0
POINT
  5
39e
330
39f
100
AcDbEntity
   8
Point
60
   0
62
256
100
AcDbPoint
 10
559239.1608848722
 20
3371400.4517328306
 30
26.795473098754883
   0
POINT
  5
3a0
330
3a1
100
AcDbEntity
   8
Point
60
   0
62
256
100
AcDbPoint
 10
559249.4959100882
 20
3371401.888230161
 30
26.801847457885742
   0
POINT
  5
3a2
330
3a3
100
AcDbEntity
   8
Point
60
   0
62
256
100
AcDbPoint
 10
559266.9571208046
 20
3371406.940670026
 30
26.81949234008789
   0
POINT
  5
3a4
330
3a5
100
AcDbEntity
   8
Point
60
   0
62
256
100
AcDbPoint
 10
559276.7431841916
 20
3371411.489268079
 30
26.785938262939453
   0
POINT
  5
3a6
330
3a7
100
AcDbEntity
   8
Point
60
   0
62
256
100
AcDbPoint
 10
559286.3050984053
 20
3371417.577194147
 30
26.786590576171875
   0
POINT
  5
3a8
330
3a9
100
AcDbEntity
   8
Point
60
   0
62
256
100
AcDbPoint
 10
559289.7244346583
 20
3371420.2137389164
 30
26.78112030029297
   0
TEXT
  5
3aa
330
1F
100
AcDbEntity
  8
PointName
62
256
100
AcDbText
 10
559035.7611886914
 20
3371480.3720097695
 30
31.144695281982422
 40
1.0
  1
Pt1,559035.511,3371480.122
7
Standard
100
AcDbText
   0
TEXT
  5
3ab
330
1F
100
AcDbEntity
  8
PointName
62
256
100
AcDbText
 10
559025.5272473241
 20
3371365.668178516
 30
31.320932388305664
 40
1.0
  1
Pt2,559025.277,3371365.418
7
Standard
100
AcDbText
   0
TEXT
  5
3ac
330
1F
100
AcDbEntity
  8
PointName
62
256
100
AcDbText
 10
559184.3339493506
 20
3371542.1226288057
 30
26.865734100341797
 40
1.0
  1
pd2,559184.084,3371541.873
7
Standard
100
AcDbText
   0
TEXT
  5
3ad
330
1F
100
AcDbEntity
  8
PointName
62
256
100
AcDbText
 10
559183.7016678908
 20
3371533.8187897615
 30
26.847335815429688
 40
1.0
  1
pd3,559183.452,3371533.569
7
Standard
100
AcDbText
   0
TEXT
  5
3ae
330
1F
100
AcDbEntity
  8
PointName
62
256
100
AcDbText
 10
559184.3252453984
 20
3371524.8443159014
 30
26.843719482421875
 40
1.0
  1
pd4,559184.075,3371524.594
7
Standard
100
AcDbText
   0
TEXT
  5
3af
330
1F
100
AcDbEntity
  8
PointName
62
256
100
AcDbText
 10
559184.9535973741
 20
3371515.724260598
 30
26.831466674804688
 40
1.0
  1
pd5,559184.704,3371515.474
7
Standard
100
AcDbText
   0
TEXT
  5
3b0
330
1F
100
AcDbEntity
  8
PointName
62
256
100
AcDbText
 10
559185.5874697935
 20
3371506.608039587
 30
26.828777313232422
 40
1.0
  1
pd6,559185.337,3371506.358
7
Standard
100
AcDbText
   0
TEXT
  5
3b1
330
1F
100
AcDbEntity
  8
PointName
62
256
100
AcDbText
 10
559186.2374321015
 20
3371497.488974506
 30
26.86359214782715
 40
1.0
  1
pd7,559185.987,3371497.239
7
Standard
100
AcDbText
   0
TEXT
  5
3b2
330
1F
100
AcDbEntity
  8
PointName
62
256
100
AcDbText
 10
559186.9831598597
 20
3371486.924305734
 30
26.88592529296875
 40
1.0
  1
pd8,559186.733,3371486.674
7
Standard
100
AcDbText
   0
TEXT
  5
3b3
330
1F
100
AcDbEntity
  8
PointName
62
256
100
AcDbText
 10
559188.1540905768
 20
3371470.1360827703
 30
26.85659408569336
 40
1.0
  1
pd9,559187.904,3371469.886
7
Standard
100
AcDbText
   0
TEXT
  5
3b4
330
1F
100
AcDbEntity
  8
PointName
62
256
100
AcDbText
 10
559189.7865974397
 20
3371447.028881387
 30
26.850191116333008
 40
1.0
  1
pd10,559189.537,3371446.779
7
Standard
100
AcDbText
   0
TEXT
  5
3b5
330
1F
100
AcDbEntity
  8
PointName
62
256
100
AcDbText
 10
559190.4120785124
 20
3371441.987383919
 30
26.85651206970215
 40
1.0
  1
pd11,559190.162,3371441.737
7
Standard
100
AcDbText
   0
TEXT
  5
3b6
330
1F
100
AcDbEntity
  8
PointName
62
256
100
AcDbText
 10
559193.0829856882
 20
3371432.8497009985
 30
26.87939453125
 40
1.0
  1
pd12,559192.833,3371432.600
7
Standard
100
AcDbText
   0
TEXT
  5
3b7
330
1F
100
AcDbEntity
  8
PointName
62
256
100
AcDbText
 10
559194.6107273638
 20
3371429.47498697
 30
26.859439849853516
 40
1.0
  1
pd13,559194.361,3371429.225
7
Standard
100
AcDbText
   0
TEXT
  5
3b8
330
1F
100
AcDbEntity
  8
PointName
62
256
100
AcDbText
 10
559199.5303017446
 20
3371421.7542788177
 30
26.856369018554688
 40
1.0
  1
pd14,559199.280,3371421.504
7
Standard
100
AcDbText
   0
TEXT
  5
3b9
330
1F
100
AcDbEntity
  8
PointName
62
256
100
AcDbText
 10
559206.6639427058
 20
3371414.475825768
 30
26.861286163330078
 40
1.0
  1
pd15,559206.414,3371414.226
7
Standard
100
AcDbText
   0
TEXT
  5
3ba
330
1F
100
AcDbEntity
  8
PointName
62
256
100
AcDbText
 10
559214.835162372
 20
3371409.1421378762
 30
26.87240219116211
 40
1.0
  1
pd16,559214.585,3371408.892
7
Standard
100
AcDbText
   0
TEXT
  5
3bb
330
1F
100
AcDbEntity
  8
PointName
62
256
100
AcDbText
 10
559220.9450856759
 20
3371406.5461424706
 30
26.867361068725586
 40
1.0
  1
pd17,559220.695,3371406.296
7
Standard
100
AcDbText
   0
TEXT
  5
3bc
330
1F
100
AcDbEntity
  8
PointName
62
256
100
AcDbText
 10
559229.2003405314
 20
3371404.5487046624
 30
26.875492095947266
 40
1.0
  1
pd18,559228.950,3371404.299
7
Standard
100
AcDbText
   0
TEXT
  5
3bd
330
1F
100
AcDbEntity
  8
PointName
62
256
100
AcDbText
 10
559238.2671563684
 20
3371404.1124824015
 30
26.875194549560547
 40
1.0
  1
pd19,559238.017,3371403.862
7
Standard
100
AcDbText
   0
TEXT
  5
3be
330
1F
100
AcDbEntity
  8
PointName
62
256
100
AcDbText
 10
559248.0618946975
 20
3371405.6960952324
 30
26.880172729492188
 40
1.0
  1
pd20,559247.812,3371405.446
7
Standard
100
AcDbText
   0
TEXT
  5
3bf
330
1F
100
AcDbEntity
  8
PointName
62
256
100
AcDbText
 10
559257.0158311938
 20
3371409.1870808895
 30
26.899885177612305
 40
1.0
  1
pd21,559256.766,3371408.937
7
Standard
100
AcDbText
   0
TEXT
  5
3c0
330
1F
100
AcDbEntity
  8
PointName
62
256
100
AcDbText
 10
559264.3971444791
 20
3371413.9233325776
 30
26.899070739746094
 40
1.0
  1
pd22,559264.147,3371413.673
7
Standard
100
AcDbText
   0
TEXT
  5
3c1
330
1F
100
AcDbEntity
  8
PointName
62
256
100
AcDbText
 10
559269.4818505376
 20
3371418.5388858863
 30
26.889354705810547
 40
1.0
  1
pd23,559269.232,3371418.289
7
Standard
100
AcDbText
   0
TEXT
  5
3c2
330
1F
100
AcDbEntity
  8
PointName
62
256
100
AcDbText
 10
559274.3493869213
 20
3371424.696356894
 30
26.89208221435547
 40
1.0
  1
pd24,559274.099,3371424.446
7
Standard
100
AcDbText
   0
TEXT
  5
3c3
330
1F
100
AcDbEntity
  8
PointName
62
256
100
AcDbText
 10
559277.956956516
 20
3371431.1607342064
 30
26.87955093383789
 40
1.0
  1
pd25,559277.707,3371430.911
7
Standard
100
AcDbText
   0
TEXT
  5
3c4
330
1F
100
AcDbEntity
  8
PointName
62
256
100
AcDbText
 10
559280.4592456508
 20
3371438.0961706284
 30
26.876279830932617
 40
1.0
  1
pd26,559280.209,3371437.846
7
Standard
100
AcDbText
   0
TEXT
  5
3c5
330
1F
100
AcDbEntity
  8
PointName
62
256
100
AcDbText
 10
559281.6932679293
 20
3371444.30817547
 30
26.8814697265625
 40
1.0
  1
pd27,559281.443,3371444.058
7
Standard
100
AcDbText
   0
TEXT
  5
3c6
330
1F
100
AcDbEntity
  8
PointName
62
256
100
AcDbText
 10
559282.0798176886
 20
3371449.6237352337
 30
26.891010284423828
 40
1.0
  1
pd28,559281.830,3371449.374
7
Standard
100
AcDbText
   0
TEXT
  5
3c7
330
1F
100
AcDbEntity
  8
PointName
62
256
100
AcDbText
 10
559281.9145076821
 20
3371454.1646744558
 30
26.894386291503906
 40
1.0
  1
pd29,559281.665,3371453.915
7
Standard
100
AcDbText
   0
TEXT
  5
3c8
330
1F
100
AcDbEntity
  8
PointName
62
256
100
AcDbText
 10
559280.5993061413
 20
3371473.0729172067
 30
26.88759422302246
 40
1.0
  1
pd30,559280.349,3371472.823
7
Standard
100
AcDbText
   0
TEXT
  5
3c9
330
1F
100
AcDbEntity
  8
PointName
62
256
100
AcDbText
 10
559279.2140881039
 20
3371492.7981933514
 30
26.876977920532227
 40
1.0
  1
pd31,559278.964,3371492.548
7
Standard
100
AcDbText
   0
TEXT
  5
3ca
330
1F
100
AcDbEntity
  8
PointName
62
256
100
AcDbText
 10
559277.1772570348
 20
3371521.8956549293
 30
26.87325096130371
 40
1.0
  1
pd32,559276.927,3371521.646
7
Standard
100
AcDbText
   0
TEXT
  5
3cb
330
1F
100
AcDbEntity
  8
PointName
62
256
100
AcDbText
 10
559276.0108197803
 20
3371538.2544746185
 30
26.854312896728516
 40
1.0
  1
pd33,559275.761,3371538.004
7
Standard
100
AcDbText
   0
TEXT
  5
3cc
330
1F
100
AcDbEntity
  8
PointName
62
256
100
AcDbText
 10
559275.4142307194
 20
3371542.873042426
 30
26.87678337097168
 40
1.0
  1
pd34,559275.164,3371542.623
7
Standard
100
AcDbText
   0
TEXT
  5
3cd
330
1F
100
AcDbEntity
  8
PointName
62
256
100
AcDbText
 10
559274.4720823384
 20
3371546.919739309
 30
26.862943649291992
 40
1.0
  1
pd35,559274.222,3371546.670
7
Standard
100
AcDbText
   0
TEXT
  5
3ce
330
1F
100
AcDbEntity
  8
PointName
62
256
100
AcDbText
 10
559273.371925234
 20
3371550.3440548964
 30
26.856922149658203
 40
1.0
  1
pd36,559273.122,3371550.094
7
Standard
100
AcDbText
   0
TEXT
  5
3cf
330
1F
100
AcDbEntity
  8
PointName
62
256
100
AcDbText
 10
559272.044741409
 20
3371553.6051411834
 30
26.853816986083984
 40
1.0
  1
pd37,559271.795,3371553.355
7
Standard
100
AcDbText
   0
TEXT
  5
3d0
330
1F
100
AcDbEntity
  8
PointName
62
256
100
AcDbText
 10
559271.2125678036
 20
3371555.3185614906
 30
26.856121063232422
 40
1.0
  1
pd38,559270.963,3371555.069
7
Standard
100
AcDbText
   0
TEXT
  5
3d1
330
1F
100
AcDbEntity
  8
PointName
62
256
100
AcDbText
 10
559268.7370933892
 20
3371559.6647336637
 30
26.863265991210938
 40
1.0
  1
pd39,559268.487,3371559.415
7
Standard
100
AcDbText
   0
TEXT
  5
3d2
330
1F
100
AcDbEntity
  8
PointName
62
256
100
AcDbText
 10
559266.5859770034
 20
3371562.688840731
 30
26.85885238647461
 40
1.0
  1
pd40,559266.336,3371562.439
7
Standard
100
AcDbText
   0
TEXT
  5
3d3
330
1F
100
AcDbEntity
  8
PointName
62
256
100
AcDbText
 10
559262.9260053617
 20
3371566.8944203593
 30
26.868484497070312
 40
1.0
  1
pd41,559262.676,3371566.644
7
Standard
100
AcDbText
   0
TEXT
  5
3d4
330
1F
100
AcDbEntity
  8
PointName
62
256
100
AcDbText
 10
559259.3494356012
 20
3371570.1710195094
 30
26.88532257080078
 40
1.0
  1
pd42,559259.099,3371569.921
7
Standard
100
AcDbText
   0
TEXT
  5
3d5
330
1F
100
AcDbEntity
  8
PointName
62
256
100
AcDbText
 10
559253.7027172735
 20
3371574.147136451
 30
26.865203857421875
 40
1.0
  1
pd43,559253.453,3371573.897
7
Standard
100
AcDbText
   0
TEXT
  5
3d6
330
1F
100
AcDbEntity
  8
PointName
62
256
100
AcDbText
 10
559248.4721143442
 20
3371576.842923219
 30
26.849884033203125
 40
1.0
  1
pd44,559248.222,3371576.593
7
Standard
100
AcDbText
   0
TEXT
  5
3d7
330
1F
100
AcDbEntity
  8
PointName
62
256
100
AcDbText
 10
559240.1410573584
 20
3371579.589530257
 30
26.846818923950195
 40
1.0
  1
pd45,559239.891,3371579.340
7
Standard
100
AcDbText
   0
TEXT
  5
3d8
330
1F
100
AcDbEntity
  8
PointName
62
256
100
AcDbText
 10
559232.162669249
 20
3371580.6646954264
 30
26.860610961914062
 40
1.0
  1
pd46,559231.913,3371580.415
7
Standard
100
AcDbText
   0
TEXT
  5
3d9
330
1F
100
AcDbEntity
  8
PointName
62
256
100
AcDbText
 10
559225.703215627
 20
3371580.5259020594
 30
26.85610580444336
 40
1.0
  1
pd47,559225.453,3371580.276
7
Standard
100
AcDbText
   0
TEXT
  5
3da
330
1F
100
AcDbEntity
  8
PointName
62
256
100
AcDbText
 10
559216.7627935666
 20
3371578.792484788
 30
26.857425689697266
 40
1.0
  1
pd48,559216.513,3371578.542
7
Standard
100
AcDbText
   0
TEXT
  5
3db
330
1F
100
AcDbEntity
  8
PointName
62
256
100
AcDbText
 10
559208.2553791496
 20
3371575.305373868
 30
26.884302139282227
 40
1.0
  1
pd49,559208.005,3371575.055
7
Standard
100
AcDbText
   0
TEXT
  5
3dc
330
1F
100
AcDbEntity
  8
PointName
62
256
100
AcDbText
 10
559199.1600450518
 20
3371568.965562438
 30
26.86933708190918
 40
1.0
  1
pd50,559198.910,3371568.716
7
Standard
100
AcDbText
   0
TEXT
  5
3dd
330
1F
100
AcDbEntity
  8
PointName
62
256
100
AcDbText
 10
559195.0780163385
 20
3371564.817323561
 30
26.882335662841797
 40
1.0
  1
pd51,559194.828,3371564.567
7
Standard
100
AcDbText
   0
TEXT
  5
3de
330
1F
100
AcDbEntity
  8
PointName
62
256
100
AcDbText
 10
559192.7373935378
 20
3371561.892125321
 30
26.897727966308594
 40
1.0
  1
pd52,559192.487,3371561.642
7
Standard
100
AcDbText
   0
TEXT
  5
3df
330
1F
100
AcDbEntity
  8
PointName
62
256
100
AcDbText
 10
559189.788577411
 20
3371557.3527030614
 30
26.875062942504883
 40
1.0
  1
pd53,559189.539,3371557.103
7
Standard
100
AcDbText
   0
TEXT
  5
3e0
330
1F
100
AcDbEntity
  8
PointName
62
256
100
AcDbText
 10
559181.7704181655
 20
3371561.1665008157
 30
26.8135986328125
 40
1.0
  1
pd54,559181.520,3371560.917
7
Standard
100
AcDbText
   0
TEXT
  5
3e1
330
1F
100
AcDbEntity
  8
PointName
62
256
100
AcDbText
 10
559187.2931975754
 20
3371552.2309118276
 30
26.889698028564453
 40
1.0
  1
pd55,559187.043,3371551.981
7
Standard
100
AcDbText
   0
TEXT
  5
3e2
330
1F
100
AcDbEntity
  8
PointName
62
256
100
AcDbText
 10
559185.4501110443
 20
3371546.9663387993
 30
26.872600555419922
 40
1.0
  1
pd56,559185.200,3371546.716
7
Standard
100
AcDbText
   0
TEXT
  5
3e3
330
1F
100
AcDbEntity
  8
PointName
62
256
100
AcDbText
 10
559194.3421558869
 20
3371537.3919142033
 30
26.737112045288086
 40
1.0
  1
pd57,559194.092,3371537.142
7
Standard
100
AcDbText
   0
TEXT
  5
3e4
330
1F
100
AcDbEntity
  8
PointName
62
256
100
AcDbText
 10
559195.3777960566
 20
3371542.2917556376
 30
26.76104736328125
 40
1.0
  1
JJpd58,559195.128,3371542.042
7
Standard
100
AcDbText
   0
TEXT
  5
3e5
330
1F
100
AcDbEntity
  8
PointName
62
256
100
AcDbText
 10
559196.4201619962
 20
3371501.9175915993
 30
26.764846801757812
 40
1.0
  1
pd58,559196.170,3371501.668
7
Standard
100
AcDbText
   0
TEXT
  5
3e6
330
1F
100
AcDbEntity
  8
PointName
62
256
100
AcDbText
 10
559199.0391366344
 20
3371489.9208452404
 30
26.770883560180664
 40
1.0
  1
JJpd59,559198.789,3371489.671
7
Standard
100
AcDbText
   0
TEXT
  5
3e7
330
1F
100
AcDbEntity
  8
PointName
62
256
100
AcDbText
 10
559198.8428971815
 20
3371467.926264343
 30
26.751848220825195
 40
1.0
  1
pd59,559198.593,3371467.676
7
Standard
100
AcDbText
   0
TEXT
  5
3e8
330
1F
100
AcDbEntity
  8
PointName
62
256
100
AcDbText
 10
559172.5153814534
 20
3371450.6600976684
 30
31.22991371154785
 40
1.0
  1
pd60,559172.265,3371450.410
7
Standard
100
AcDbText
   0
TEXT
  5
3e9
330
1F
100
AcDbEntity
  8
PointName
62
256
100
AcDbText
 10
559167.853730036
 20
3371525.3257428543
 30
31.197851181030273
 40
1.0
  1
pd61,559167.604,3371525.076
7
Standard
100
AcDbText
   0
TEXT
  5
3ea
330
1F
100
AcDbEntity
  8
PointName
62
256
100
AcDbText
 10
559178.3434219288
 20
3371525.418541933
 30
26.79033088684082
 40
1.0
  1
pd62,559178.093,3371525.169
7
Standard
100
AcDbText
   0
TEXT
  5
3eb
330
1F
100
AcDbEntity
  8
PointName
62
256
100
AcDbText
 10
559183.6156273469
 20
3371451.365439021
 30
26.811058044433594
 40
1.0
  1
pd63,559183.366,3371451.115
7
Standard
100
AcDbText
   0
TEXT
  5
3ec
330
1F
100
AcDbEntity
  8
PointName
62
256
100
AcDbText
 10
559199.523673746
 20
3371458.032302389
 30
26.800155639648438
 40
1.0
  1
pd64,559199.274,3371457.782
7
Standard
100
AcDbText
   0
TEXT
  5
3ed
330
1F
100
AcDbEntity
  8
PointName
62
256
100
AcDbText
 10
559200.2263997671
 20
3371448.156502197
 30
26.789920806884766
 40
1.0
  1
pd65,559199.976,3371447.907
7
Standard
100
AcDbText
   0
TEXT
  5
3ee
330
1F
100
AcDbEntity
  8
PointName
62
256
100
AcDbText
 10
559200.7097476189
 20
3371444.0556619484
 30
26.788930892944336
 40
1.0
  1
pd66,559200.460,3371443.806
7
Standard
100
AcDbText
   0
TEXT
  5
3ef
330
1F
100
AcDbEntity
  8
PointName
62
256
100
AcDbText
 10
559202.7213181858
 20
3371437.532333069
 30
26.739578247070312
 40
1.0
  1
JJpd67,559202.471,3371437.282
7
Standard
100
AcDbText
   0
TEXT
  5
3f0
330
1F
100
AcDbEntity
  8
PointName
62
256
100
AcDbText
 10
559202.5423511398
 20
3371437.4248036775
 30
26.76291847229004
 40
1.0
  1
pd67,559202.292,3371437.175
7
Standard
100
AcDbText
   0
TEXT
  5
3f1
330
1F
100
AcDbEntity
  8
PointName
62
256
100
AcDbText
 10
559203.7925179948
 20
3371434.688829494
 30
26.746295928955078
 40
1.0
  1
pd68,559203.543,3371434.439
7
Standard
100
AcDbText
   0
TEXT
  5
3f2
330
1F
100
AcDbEntity
  8
PointName
62
256
100
AcDbText
 10
559205.9225629789
 20
3371430.843330244
 30
26.814037322998047
 40
1.0
  1
pd69,559205.673,3371430.593
7
Standard
100
AcDbText
   0
TEXT
  5
3f3
330
1F
100
AcDbEntity
  8
PointName
62
256
100
AcDbText
 10
559209.2926750986
 20
3371426.4754089913
 30
26.81071662902832
 40
1.0
  1
pd70,559209.043,3371426.225
7
Standard
100
AcDbText
   0
TEXT
  5
3f4
330
1F
100
AcDbEntity
  8
PointName
62
256
100
AcDbText
 10
559213.1913656355
 20
3371422.719501643
 30
26.806703567504883
 40
1.0
  1
pd71,559212.941,3371422.470
7
Standard
100
AcDbText
   0
TEXT
  5
3f5
330
1F
100
AcDbEntity
  8
PointName
62
256
100
AcDbText
 10
559219.6020222495
 20
3371418.436591473
 30
26.810054779052734
 40
1.0
  1
pd72,559219.352,3371418.187
7
Standard
100
AcDbText
   0
TEXT
  5
3f6
330
1F
100
AcDbEntity
  8
PointName
62
256
100
AcDbText
 10
559227.7440999909
 20
3371415.452375433
 30
26.81241798400879
 40
1.0
  1
pd73,559227.494,3371415.202
7
Standard
100
AcDbText
   0
TEXT
  5
3f7
330
1F
100
AcDbEntity
  8
PointName
62
256
100
AcDbText
 10
559238.3089003016
 20
3371414.6097395206
 30
26.811227798461914
 40
1.0
  1
pd74,559238.059,3371414.360
7
Standard
100
AcDbText
   0
TEXT
  5
3f8
330
1F
100
AcDbEntity
  8
PointName
62
256
100
AcDbText
 10
559236.7091562878
 20
3371399.3810527334
 30
27.116146087646484
 40
1.0
  1
wpd75,559236.459,3371399.131
7
Standard
100
AcDbText
   0
TEXT
  5
3f9
330
1F
100
AcDbEntity
  8
PointName
62
256
100
AcDbText
 10
559236.7301286584
 20
3371398.6402067565
 30
27.139728546142578
 40
1.0
  1
wpd76,559236.480,3371398.390
7
Standard
100
AcDbText
   0
TEXT
  5
3fa
330
1F
100
AcDbEntity
  8
PointName
62
256
100
AcDbText
 10
559235.2978451974
 20
3371398.516621478
 30
27.144458770751953
 40
1.0
  1
wpd77,559235.048,3371398.267
7
Standard
100
AcDbText
   0
TEXT
  5
3fb
330
1F
100
AcDbEntity
  8
PointName
62
256
100
AcDbText
 10
559235.4251799985
 20
3371396.6610580003
 30
27.156702041625977
 40
1.0
  1
wpd78,559235.175,3371396.411
7
Standard
100
AcDbText
   0
TEXT
  5
3fc
330
1F
100
AcDbEntity
  8
PointName
62
256
100
AcDbText
 10
559236.8798814628
 20
3371396.714930527
 30
27.185205459594727
 40
1.0
  1
wpd79,559236.630,3371396.465
7
Standard
100
AcDbText
   0
TEXT
  5
3fd
330
1F
100
AcDbEntity
  8
PointName
62
256
100
AcDbText
 10
559236.9410896829
 20
3371396.165870068
 30
27.138399124145508
 40
1.0
  1
wpd80,559236.691,3371395.916
7
Standard
100
AcDbText
   0
TEXT
  5
3fe
330
1F
100
AcDbEntity
  8
PointName
62
256
100
AcDbText
 10
559242.3191734272
 20
3371399.8167160354
 30
27.10785484313965
 40
1.0
  1
wpd81,559242.069,3371399.567
7
Standard
100
AcDbText
   0
TEXT
  5
3ff
330
1F
100
AcDbEntity
  8
PointName
62
256
100
AcDbText
 10
559242.3769080262
 20
3371399.0650383057
 30
27.107540130615234
 40
1.0
  1
wpd82,559242.127,3371398.815
7
Standard
100
AcDbText
   0
TEXT
  5
400
330
1F
100
AcDbEntity
  8
PointName
62
256
100
AcDbText
 10
559243.8082383769
 20
3371399.154588351
 30
27.11876106262207
 40
1.0
  1
wpd83,559243.558,3371398.905
7
Standard
100
AcDbText
   0
TEXT
  5
401
330
1F
100
AcDbEntity
  8
PointName
62
256
100
AcDbText
 10
559244.0412737083
 20
3371397.37978719
 30
27.15247917175293
 40
1.0
  1
wpd84,559243.791,3371397.130
7
Standard
100
AcDbText
   0
TEXT
  5
402
330
1F
100
AcDbEntity
  8
PointName
62
256
100
AcDbText
 10
559242.6580248526
 20
3371397.0828480264
 30
27.158315658569336
 40
1.0
  1
wpd85,559242.408,3371396.833
7
Standard
100
AcDbText
   0
TEXT
  5
403
330
1F
100
AcDbEntity
  8
PointName
62
256
100
AcDbText
 10
559242.5975298663
 20
3371396.566834825
 30
27.117618560791016
 40
1.0
  1
wpd86,559242.348,3371396.317
7
Standard
100
AcDbText
   0
TEXT
  5
404
330
1F
100
AcDbEntity
  8
PointName
62
256
100
AcDbText
 10
559239.7994567066
 20
3371398.1247352585
 30
28.029571533203125
 40
1.0
  1
wpd87,559239.549,3371397.875
7
Standard
100
AcDbText
   0
TEXT
  5
405
330
1F
100
AcDbEntity
  8
PointName
62
256
100
AcDbText
 10
559247.9780455643
 20
3371416.637383214
 30
26.81808853149414
 40
1.0
  1
pd75,559247.728,3371416.387
7
Standard
100
AcDbText
   0
TEXT
  5
406
330
1F
100
AcDbEntity
  8
PointName
62
256
100
AcDbText
 10
559227.5445249681
 20
3371439.331556559
 30
26.84926414489746
 40
1.0
  1
jjpd76,559227.295,3371439.082
7
Standard
100
AcDbText
   0
TEXT
  5
407
330
1F
100
AcDbEntity
  8
PointName
62
256
100
AcDbText
 10
559232.8012422436
 20
3371439.8382050563
 30
26.83588218688965
 40
1.0
  1
ijjpd77,559232.551,3371439.588
7
Standard
100
AcDbText
   0
TEXT
  5
408
330
1F
100
AcDbEntity
  8
PointName
62
256
100
AcDbText
 10
559232.5187253031
 20
3371436.774820489
 30
26.84364128112793
 40
1.0
  1
ijjpd78,559232.269,3371436.525
7
Standard
100
AcDbText
   0
TEXT
  5
409
330
1F
100
AcDbEntity
  8
PointName
62
256
100
AcDbText
 10
559241.1465568363
 20
3371437.3420619066
 30
26.863595962524414
 40
1.0
  1
ijjpd79,559240.897,3371437.092
7
Standard
100
AcDbText
   0
TEXT
  5
40a
330
1F
100
AcDbEntity
  8
PointName
62
256
100
AcDbText
 10
559240.5604000461
 20
3371440.2146336487
 30
26.887922286987305
 40
1.0
  1
ijjpd80,559240.310,3371439.965
7
Standard
100
AcDbText
   0
TEXT
  5
40b
330
1F
100
AcDbEntity
  8
PointName
62
256
100
AcDbText
 10
559256.6799345664
 20
3371441.444662326
 30
26.815671920776367
 40
1.0
  1
jjpd81,559256.430,3371441.195
7
Standard
100
AcDbText
   0
TEXT
  5
40c
330
1F
100
AcDbEntity
  8
PointName
62
256
100
AcDbText
 10
559258.2266221539
 20
3371422.376180577
 30
26.81644630432129
 40
1.0
  1
pd76,559257.977,3371422.126
7
Standard
100
AcDbText
   0
TEXT
  5
40d
330
1F
100
AcDbEntity
  8
PointName
62
256
100
AcDbText
 10
559263.2223464159
 20
3371427.2406005547
 30
26.81615447998047
 40
1.0
  1
pd77,559262.972,3371426.991
7
Standard
100
AcDbText
   0
TEXT
  5
40e
330
1F
100
AcDbEntity
  8
PointName
62
256
100
AcDbText
 10
559267.4999127495
 20
3371433.587929286
 30
26.823192596435547
 40
1.0
  1
pd78,559267.250,3371433.338
7
Standard
100
AcDbText
   0
TEXT
  5
40f
330
1F
100
AcDbEntity
  8
PointName
62
256
100
AcDbText
 10
559269.9330459321
 20
3371439.4125851067
 30
26.75212287902832
 40
1.0
  1
pd79,559269.683,3371439.163
7
Standard
100
AcDbText
   0
TEXT
  5
410
330
1F
100
AcDbEntity
  8
PointName
62
256
100
AcDbText
 10
559270.7788293826
 20
3371442.4666067204
 30
26.74850845336914
 40
1.0
  1
pd80,559270.529,3371442.217
7
Standard
100
AcDbText
   0
TEXT
  5
411
330
1F
100
AcDbEntity
  8
PointName
62
256
100
AcDbText
 10
559270.4939631412
 20
3371442.4639727324
 30
26.763507843017578
 40
1.0
  1
jjpd81,559270.244,3371442.214
7
Standard
100
AcDbText
   0
TEXT
  5
412
330
1F
100
AcDbEntity
  8
PointName
62
256
100
AcDbText
 10
559271.4977827952
 20
3371447.896132444
 30
26.75851821899414
 40
1.0
  1
pd82,559271.248,3371447.646
7
Standard
100
AcDbText
   0
TEXT
  5
413
330
1F
100
AcDbEntity
  8
PointName
62
256
100
AcDbText
 10
559271.5102154152
 20
3371452.8530376926
 30
26.76432991027832
 40
1.0
  1
pd83,559271.260,3371452.603
7
Standard
100
AcDbText
   0
TEXT
  5
414
330
1F
100
AcDbEntity
  8
PointName
62
256
100
AcDbText
 10
559270.7769797782
 20
3371463.4911915287
 30
26.75175666809082
 40
1.0
  1
pd84,559270.527,3371463.241
7
Standard
100
AcDbText
   0
TEXT
  5
415
330
1F
100
AcDbEntity
  8
PointName
62
256
100
AcDbText
 10
559268.575552389
 20
3371494.901919187
 30
26.75971794128418
 40
1.0
  1
pd85,559268.326,3371494.652
7
Standard
100
AcDbText
   0
TEXT
  5
416
330
1F
100
AcDbEntity
  8
PointName
62
256
100
AcDbText
 10
559266.8386926678
 20
3371494.8556457683
 30
26.7707462310791
 40
1.0
  1
JJpd86,559266.589,3371494.606
7
Standard
100
AcDbText
   0
TEXT
  5
417
330
1F
100
AcDbEntity
  8
PointName
62
256
100
AcDbText
 10
559266.8439969161
 20
3371494.8659077543
 30
26.777141571044922
 40
1.0
  1
JJpd87,559266.594,3371494.616
7
Standard
100
AcDbText
   0
TEXT
  5
418
330
1F
100
AcDbEntity
  8
PointName
62
256
100
AcDbText
 10
559265.6775369203
 20
3371536.3157125474
 30
26.79806137084961
 40
1.0
  1
pd86,559265.428,3371536.066
7
Standard
100
AcDbText
   0
TEXT
  5
419
330
1F
100
AcDbEntity
  8
PointName
62
256
100
AcDbText
 10
559264.8258635388
 20
3371542.3550156616
 30
26.7723331451416
 40
1.0
  1
pd87,559264.576,3371542.105
7
Standard
100
AcDbText
   0
TEXT
  5
41a
330
1F
100
AcDbEntity
  8
PointName
62
256
100
AcDbText
 10
559263.322734178
 20
3371547.3832779215
 30
26.76265525817871
 40
1.0
  1
pd88,559263.073,3371547.133
7
Standard
100
AcDbText
   0
TEXT
  5
41b
330
1F
100
AcDbEntity
  8
PointName
62
256
100
AcDbText
 10
559263.1397913254
 20
3371547.205643893
 30
26.760589599609375
 40
1.0
  1
JJpd88,559262.890,3371546.956
7
Standard
100
AcDbText
   0
TEXT
  5
41c
330
1F
100
AcDbEntity
  8
PointName
62
256
100
AcDbText
 10
559262.1049959578
 20
3371550.115729606
 30
26.752079010009766
 40
1.0
  1
pd89,559261.855,3371549.866
7
Standard
100
AcDbText
   0
TEXT
  5
41d
330
1F
100
AcDbEntity
  8
PointName
62
256
100
AcDbText
 10
559260.6279147848
 20
3371552.868434364
 30
26.837127685546875
 40
1.0
  1
pd90,559260.378,3371552.618
7
Standard
100
AcDbText
   0
TEXT
  5
41e
330
1F
100
AcDbEntity
  8
PointName
62
256
100
AcDbText
 10
559257.5968771899
 20
3371557.1667070882
 30
26.83196449279785
 40
1.0
  1
pd91,559257.347,3371556.917
7
Standard
100
AcDbText
   0
TEXT
  5
41f
330
1F
100
AcDbEntity
  8
PointName
62
256
100
AcDbText
 10
559251.0134732913
 20
3371563.4048095965
 30
26.80339813232422
 40
1.0
  1
pd92,559250.763,3371563.155
7
Standard
100
AcDbText
   0
TEXT
  5
420
330
1F
100
AcDbEntity
  8
PointName
62
256
100
AcDbText
 10
559253.7603217694
 20
3371554.541078425
 30
26.7584171295166
 40
1.0
  1
apd93,559253.510,3371554.291
7
Standard
100
AcDbText
   0
TEXT
  5
421
330
1F
100
AcDbEntity
  8
PointName
62
256
100
AcDbText
 10
559253.25810847
 20
3371552.4909063615
 30
26.772993087768555
 40
1.0
  1
apd94,559253.008,3371552.241
7
Standard
100
AcDbText
   0
TEXT
  5
422
330
1F
100
AcDbEntity
  8
PointName
62
256
100
AcDbText
 10
559253.3381142702
 20
3371553.5384082138
 30
26.75739288330078
 40
1.0
  1
apd95,559253.088,3371553.288
7
Standard
100
AcDbText
   0
TEXT
  5
423
330
1F
100
AcDbEntity
  8
PointName
62
256
100
AcDbText
 10
559236.8775690933
 20
3371551.326829437
 30
26.80625343322754
 40
1.0
  1
apd96,559236.628,3371551.077
7
Standard
100
AcDbText
   0
TEXT
  5
424
330
1F
100
AcDbEntity
  8
PointName
62
256
100
AcDbText
 10
559236.846671257
 20
3371553.642176192
 30
26.805835723876953
 40
1.0
  1
apd97,559236.597,3371553.392
7
Standard
100
AcDbText
   0
TEXT
  5
425
330
1F
100
AcDbEntity
  8
PointName
62
256
100
AcDbText
 10
559237.6069271091
 20
3371558.2435269663
 30
26.78093910217285
 40
1.0
  1
apd98,559237.357,3371557.994
7
Standard
100
AcDbText
   0
TEXT
  5
426
330
1F
100
AcDbEntity
  8
PointName
62
256
100
AcDbText
 10
559239.7275171238
 20
3371562.98159263
 30
26.773475646972656
 40
1.0
  1
apd99,559239.478,3371562.732
7
Standard
100
AcDbText
   0
TEXT
  5
427
330
1F
100
AcDbEntity
  8
PointName
62
256
100
AcDbText
 10
559242.112244085
 20
3371568.117461564
 30
26.803178787231445
 40
1.0
  1
pd93,559241.862,3371567.867
7
Standard
100
AcDbText
   0
TEXT
  5
428
330
1F
100
AcDbEntity
  8
PointName
62
256
100
AcDbText
 10
559237.6446494481
 20
3371569.400504713
 30
26.807353973388672
 40
1.0
  1
pd94,559237.395,3371569.151
7
Standard
100
AcDbText
   0
TEXT
  5
429
330
1F
100
AcDbEntity
  8
PointName
62
256
100
AcDbText
 10
559230.2478694808
 20
3371570.2457477446
 30
26.80954360961914
 40
1.0
  1
pd95,559229.998,3371569.996
7
Standard
100
AcDbText
   0
TEXT
  5
42a
330
1F
100
AcDbEntity
  8
PointName
62
256
100
AcDbText
 10
559226.7997936897
 20
3371570.095377689
 30
26.80950355529785
 40
1.0
  1
pd96,559226.550,3371569.845
7
Standard
100
AcDbText
   0
TEXT
  5
42b
330
1F
100
AcDbEntity
  8
PointName
62
256
100
AcDbText
 10
559221.5725414944
 20
3371569.2488196767
 30
26.813533782958984
 40
1.0
  1
pd97,559221.323,3371568.999
7
Standard
100
AcDbText
   0
TEXT
  5
42c
330
1F
100
AcDbEntity
  8
PointName
62
256
100
AcDbText
 10
559217.2937330952
 20
3371567.9072951227
 30
26.821853637695312
 40
1.0
  1
pd98,559217.044,3371567.657
7
Standard
100
AcDbText
   0
TEXT
  5
42d
330
1F
100
AcDbEntity
  8
PointName
62
256
100
AcDbText
 10
559212.6575286172
 20
3371565.751087583
 30
26.814289093017578
 40
1.0
  1
pd99,559212.408,3371565.501
7
Standard
100
AcDbText
   0
TEXT
  5
42e
330
1F
100
AcDbEntity
  8
PointName
62
256
100
AcDbText
 10
559207.412395466
 20
3371562.210346626
 30
26.81759262084961
 40
1.0
  1
pd100,559207.162,3371561.960
7
Standard
100
AcDbText
   0
TEXT
  5
42f
330
1F
100
AcDbEntity
  8
PointName
62
256
100
AcDbText
 10
559202.9853726672
 20
3371557.939092091
 30
26.804967880249023
 40
1.0
  1
pd101,559202.735,3371557.689
7
Standard
100
AcDbText
   0
TEXT
  5
430
330
1F
100
AcDbEntity
  8
PointName
62
256
100
AcDbText
 10
559199.6786694713
 20
3371553.470832502
 30
26.8070068359375
 40
1.0
  1
pd102,559199.429,3371553.221
7
Standard
100
AcDbText
   0
TEXT
  5
431
330
1F
100
AcDbEntity
  8
PointName
62
256
100
AcDbText
 10
559196.8438378798
 20
3371547.9299036274
 30
26.79779052734375
 40
1.0
  1
pd103,559196.594,3371547.680
7
Standard
100
AcDbText
   0
TEXT
  5
432
330
1F
100
AcDbEntity
  8
PointName
62
256
100
AcDbText
 10
559195.9110761045
 20
3371545.373688861
 30
26.748687744140625
 40
1.0
  1
pd104,559195.661,3371545.124
7
Standard
100
AcDbText
   0
TEXT
  5
433
330
1F
100
AcDbEntity
  8
PointName
62
256
100
AcDbText
 10
559195.1509172488
 20
3371542.670602062
 30
26.751646041870117
 40
1.0
  1
pd105,559194.901,3371542.421
7
Standard
100
AcDbText
   0
TEXT
  5
434
330
1F
100
AcDbEntity
  8
PointName
62
256
100
AcDbText
 10
559204.3167198356
 20
3371549.0152287735
 30
26.746614456176758
 40
1.0
  1
apd100,559204.067,3371548.765
7
Standard
100
AcDbText
   0
TEXT
  5
435
330
1F
100
AcDbEntity
  8
PointName
62
256
100
AcDbText
 10
559204.0885691359
 20
3371549.9672885006
 30
26.7403564453125
 40
1.0
  1
apd101,559203.839,3371549.717
7
Standard
100
AcDbText
   0
TEXT
  5
436
330
1F
100
AcDbEntity
  8
PointName
62
256
100
AcDbText
 10
559203.5424243258
 20
3371550.94155945
 30
26.746530532836914
 40
1.0
  1
apd102,559203.292,3371550.692
7
Standard
100
AcDbText
   0
TEXT
  5
437
330
1F
100
AcDbEntity
  8
PointName
62
256
100
AcDbText
 10
559216.3541934143
 20
3371561.2995811882
 30
26.78097915649414
 40
1.0
  1
apd103,559216.104,3371561.050
7
Standard
100
AcDbText
   0
TEXT
  5
438
330
1F
100
AcDbEntity
  8
PointName
62
256
100
AcDbText
 10
559218.0927284195
 20
3371558.803175745
 30
26.781272888183594
 40
1.0
  1
apd104,559217.843,3371558.553
7
Standard
100
AcDbText
   0
TEXT
  5
439
330
1F
100
AcDbEntity
  8
PointName
62
256
100
AcDbText
 10
559219.8399304812
 20
3371554.9794741957
 30
26.79313087463379
 40
1.0
  1
apd105,559219.590,3371554.729
7
Standard
100
AcDbText
   0
TEXT
  5
43a
330
1F
100
AcDbEntity
  8
PointName
62
256
100
AcDbText
 10
559220.7521203829
 20
3371550.205444575
 30
26.843645095825195
 40
1.0
  1
apd106,559220.502,3371549.955
7
Standard
100
AcDbText
   0
TEXT
  5
43b
330
1F
100
AcDbEntity
  8
PointName
62
256
100
AcDbText
 10
559216.6582406355
 20
3371543.8228046545
 30
26.860578536987305
 40
1.0
  1
JJpd107,559216.408,3371543.573
7
Standard
100
AcDbText
   0
TEXT
  5
43c
330
1F
100
AcDbEntity
  8
PointName
62
256
100
AcDbText
 10
559225.4167624546
 20
3371544.3147027236
 30
26.8741512298584
 40
1.0
  1
iJJpd108,559225.167,3371544.065
7
Standard
100
AcDbText
   0
TEXT
  5
43d
330
1F
100
AcDbEntity
  8
PointName
62
256
100
AcDbText
 10
559224.7014200563
 20
3371547.4213427464
 30
26.838388442993164
 40
1.0
  1
iJJpd109,559224.451,3371547.171
7
Standard
100
AcDbText
   0
TEXT
  5
43e
330
1F
100
AcDbEntity
  8
PointName
62
256
100
AcDbText
 10
559233.332094288
 20
3371548.0026139636
 30
26.87739372253418
 40
1.0
  1
iJJpd110,559233.082,3371547.753
7
Standard
100
AcDbText
   0
TEXT
  5
43f
330
1F
100
AcDbEntity
  8
PointName
62
256
100
AcDbText
 10
559233.0903168406
 20
3371544.8731285166
 30
26.91602325439453
 40
1.0
  1
iJJpd111,559232.840,3371544.623
7
Standard
100
AcDbText
   0
TEXT
  5
440
330
1F
100
AcDbEntity
  8
PointName
62
256
100
AcDbText
 10
559241.3381390815
 20
3371545.612806629
 30
26.857561111450195
 40
1.0
  1
JJpd112,559241.088,3371545.363
7
Standard
100
AcDbText
   0
TEXT
  5
441
330
1F
100
AcDbEntity
  8
PointName
62
256
100
AcDbText
 10
559279.211012668
 20
3371571.6098542255
 30
26.747602462768555
 40
1.0
  1
opd1,559278.961,3371571.360
7
Standard
100
AcDbText
   0
TEXT
  5
442
330
1F
100
AcDbEntity
  8
PointName
62
256
100
AcDbText
 10
559262.579243461
 20
3371579.356379621
 30
26.79918098449707
 40
1.0
  1
opd2,559262.329,3371579.106
7
Standard
100
AcDbText
   0
TEXT
  5
443
330
1F
100
AcDbEntity
  8
PointName
62
256
100
AcDbText
 10
559245.2420895948
 20
3371583.4439448235
 30
26.79546546936035
 40
1.0
  1
opd3,559244.992,3371583.194
7
Standard
100
AcDbText
   0
TEXT
  5
444
330
1F
100
AcDbEntity
  8
PointName
62
256
100
AcDbText
 10
559223.979482763
 20
3371583.8204509085
 30
26.815650939941406
 40
1.0
  1
opd4,559223.729,3371583.570
7
Standard
100
AcDbText
   0
TEXT
  5
445
330
1F
100
AcDbEntity
  8
PointName
62
256
100
AcDbText
 10
559201.9133909324
 20
3371578.9256005036
 30
26.788333892822266
 40
1.0
  1
opd5,559201.663,3371578.676
7
Standard
100
AcDbText
   0
TEXT
  5
446
330
1F
100
AcDbEntity
  8
PointName
62
256
100
AcDbText
 10
559184.6204414082
 20
3371570.5979238837
 30
26.784835815429688
 40
1.0
  1
opd6,559184.370,3371570.348
7
Standard
100
AcDbText
   0
TEXT
  5
447
330
1F
100
AcDbEntity
  8
PointName
62
256
100
AcDbText
 10
559175.5516048772
 20
3371564.186800529
 30
26.828371047973633
 40
1.0
  1
opd7,559175.302,3371563.937
7
Standard
100
AcDbText
   0
TEXT
  5
448
330
1F
100
AcDbEntity
  8
PointName
62
256
100
AcDbText
 10
559186.2530800862
 20
3371413.201616627
 30
26.78087615966797
 40
1.0
  1
opd8,559186.003,3371412.952
7
Standard
100
AcDbText
   0
TEXT
  5
449
330
1F
100
AcDbEntity
  8
PointName
62
256
100
AcDbText
 10
559194.4903129621
 20
3371408.940570096
 30
26.769046783447266
 40
1.0
  1
opd9,559194.240,3371408.691
7
Standard
100
AcDbText
   0
TEXT
  5
44a
330
1F
100
AcDbEntity
  8
PointName
62
256
100
AcDbText
 10
559207.9418022402
 20
3371403.9897441543
 30
26.800151824951172
 40
1.0
  1
opd10,559207.692,3371403.740
7
Standard
100
AcDbText
   0
TEXT
  5
44b
330
1F
100
AcDbEntity
  8
PointName
62
256
100
AcDbText
 10
559229.7429376886
 20
3371400.608445473
 30
26.795927047729492
 40
1.0
  1
opd11,559229.493,3371400.358
7
Standard
100
AcDbText
   0
TEXT
  5
44c
330
1F
100
AcDbEntity
  8
PointName
62
256
100
AcDbText
 10
559239.4108848722
 20
3371400.7017328306
 30
26.795473098754883
 40
1.0
  1
opd12,559239.161,3371400.452
7
Standard
100
AcDbText
   0
TEXT
  5
44d
330
1F
100
AcDbEntity
  8
PointName
62
256
100
AcDbText
 10
559249.7459100882
 20
3371402.138230161
 30
26.801847457885742
 40
1.0
  1
opd13,559249.496,3371401.888
7
Standard
100
AcDbText
   0
TEXT
  5
44e
330
1F
100
AcDbEntity
  8
PointName
62
256
100
AcDbText
 10
559267.2071208046
 20
3371407.190670026
 30
26.81949234008789
 40
1.0
  1
opd14,559266.957,3371406.941
7
Standard
100
AcDbText
   0
TEXT
  5
44f
330
1F
100
AcDbEntity
  8
PointName
62
256
100
AcDbText
 10
559276.9931841916
 20
3371411.739268079
 30
26.785938262939453
 40
1.0
  1
opd15,559276.743,3371411.489
7
Standard
100
AcDbText
   0
TEXT
  5
450
330
1F
100
AcDbEntity
  8
PointName
62
256
100
AcDbText
 10
559286.5550984053
 20
3371417.827194147
 30
26.786590576171875
 40
1.0
  1
opd16,559286.305,3371417.577
7
Standard
100
AcDbText
   0
TEXT
  5
451
330
1F
100
AcDbEntity
  8
PointName
62
256
100
AcDbText
 10
559289.9744346583
 20
3371420.4637389164
 30
26.78112030029297
 40
1.0
  1
opd17,559289.724,3371420.214
7
Standard
100
AcDbText
0
ENDSEC
0
SECTION
  2
OBJECTS
  0
DICTIONARY
  5
C
330
0
100
AcDbDictionary
281
     1
  3
ACAD_COLOR
350
6B
  3
ACAD_GROUP
350
D
  3
ACAD_LAYOUT
350
1A
  3
ACAD_MATERIAL
350
6A
  3
ACAD_MLINESTYLE
350
17
  3
ACAD_PLOTSETTINGS
350
19
  3
ACAD_PLOTSTYLENAME
350
E
  3
ACAD_TABLESTYLE
350
7E
  3
ACAD_VISUALSTYLE
350
F0
  3
AcDbVariableDictionary
350
5E
  0
DICTIONARY
  5
12D
330
2
100
AcDbDictionary
280
     1
281
     1
  3
ACAD_LAYERSTATES
360
12E
  0
DICTIONARY
  5
6B
102
{ACAD_REACTORS
330
C
102
}
330
C
100
AcDbDictionary
281
     1
  0
DICTIONARY
  5
D
102
{ACAD_REACTORS
330
C
102
}
330
C
100
AcDbDictionary
281
     1
  0
DICTIONARY
  5
1A
102
{ACAD_REACTORS
330
C
102
}
330
C
100
AcDbDictionary
281
     1
  3
Model
350
22
  3
ly1
350
D3
  3
ly2
350
D7
  0
DICTIONARY
  5
6A
102
{ACAD_REACTORS
330
C
102
}
330
C
100
AcDbDictionary
281
     1
  3
ByBlock
350
EE
  3
ByLayer
350
ED
  3
Global
350
EF
  0
DICTIONARY
  5
17
102
{ACAD_REACTORS
330
C
102
}
330
C
100
AcDbDictionary
281
     1
  3
Standard
350
18
  0
DICTIONARY
  5
19
102
{ACAD_REACTORS
330
C
102
}
330
C
100
AcDbDictionary
281
     1
  0
ACDBDICTIONARYWDFLT
  5
E
102
{ACAD_REACTORS
330
C
102
}
330
C
100
AcDbDictionary
281
     1
  3
Normal
350
F
100
AcDbDictionaryWithDefault
340
F
  0
DICTIONARY
  5
7E
102
{ACAD_REACTORS
330
C
102
}
330
C
100
AcDbDictionary
281
     1
  3
Standard
350
7F
  0
DICTIONARY
  5
F0
102
{ACAD_REACTORS
330
C
102
}
330
C
100
AcDbDictionary
281
     1
  3
2dWireframe
350
F6
  3
3D Hidden
350
F8
  3
3dWireframe
350
F7
  3
Basic
350
F5
  3
Brighten
350
FC
  3
ColorChange
350
100
  3
Conceptual
350
F9
  3
Dim
350
FB
  3
Facepattern
350
FF
  3
Flat
350
F1
  3
FlatWithEdges
350
F2
  3
Gouraud
350
F3
  3
GouraudWithEdges
350
F4
  3
Linepattern
350
FE
  3
Realistic
350
FA
  3
Thicken
350
FD
  0
DICTIONARY
  5
5E
102
{ACAD_REACTORS
330
C
102
}
330
C
100
AcDbDictionary
281
     1
  3
CTABLESTYLE
350
84
  3
DIMASSOC
350
5F
  3
HIDETEXT
350
63
  0
DICTIONARY
  5
12E
102
{ACAD_REACTORS
330
12D
102
}
330
12D
100
AcDbDictionary
281
     1
  0
LAYOUT
  5
22
102
{ACAD_REACTORS
330
1A
102
}
330
1A
100
AcDbPlotSettings
  1

  2
none_device
  4
ISO_A4_(210.00_x_297.00_MM)
  6

 40
7.5
 41
20.0
 42
7.5
 43
20.0
 44
210.0
 45
297.0
 46
11.54999923706054
 47
-13.65000009536743
 48
0.0
 49
0.0
140
0.0
141
0.0
142
1.0
143
8.704084754739808
 70
 11952
 72
     1
 73
     0
 74
     0
  7

 75
     0
147
0.1148885871608098
 76
     0
 77
     2
 78
   300
148
0.0
149
0.0
100
AcDbLayout
  1
Model
 70
     1
 71
     0
 10
0.0
 20
0.0
 11
12.0
 21
9.0
 12
0.0
 22
0.0
 32
0.0
 14
0.0
 24
0.0
 34
0.0
 15
0.0
 25
0.0
 35
0.0
146
0.0
 13
0.0
 23
0.0
 33
0.0
 16
1.0
 26
0.0
 36
0.0
 17
0.0
 27
1.0
 37
0.0
 76
     0
330
1F
331
EB
1001
ACAD_PSEXT
1000
None
1000
None
1000
Not applicable
1000
The layout will not be plotted unless a new plotter configuration name is selected.
1070
     0
  0
LAYOUT
  5
D3
102
{ACAD_REACTORS
330
1A
102
}
330
1A
100
AcDbPlotSettings
  1

  2
C:\Documents and Settings\basas\Application Data\Autodesk\AutoCAD 2005\R16.1\enu\plotters\Default Windows System Printer.pc3
  4

  6

 40
0.0
 41
0.0
 42
0.0
 43
0.0
 44
0.0
 45
0.0
 46
0.0
 47
0.0
 48
0.0
 49
0.0
140
0.0
141
0.0
142
1.0
143
1.0
 70
   688
 72
     0
 73
     0
 74
     5
  7

 75
    16
147
1.0
 76
     0
 77
     2
 78
   300
148
0.0
149
0.0
100
AcDbLayout
  1
ly1
 70
     1
 71
     1
 10
0.0
 20
0.0
 11
12.0
 21
9.0
 12
0.0
 22
0.0
 32
0.0
 14
0.0
 24
0.0
 34
0.0
 15
0.0
 25
0.0
 35
0.0
146
0.0
 13
0.0
 23
0.0
 33
0.0
 16
1.0
 26
0.0
 36
0.0
 17
0.0
 27
1.0
 37
0.0
 76
     0
330
D2
  0
LAYOUT
  5
D7
102
{ACAD_REACTORS
330
1A
102
}
330
1A
100
AcDbPlotSettings
  1

  2
C:\Documents and Settings\basas\Application Data\Autodesk\AutoCAD 2005\R16.1\enu\plotters\Default Windows System Printer.pc3
  4

  6

 40
0.0
 41
0.0
 42
0.0
 43
0.0
 44
0.0
 45
0.0
 46
0.0
 47
0.0
 48
0.0
 49
0.0
140
0.0
141
0.0
142
1.0
143
1.0
 70
   688
 72
     0
 73
     0
 74
     5
  7

 75
    16
147
1.0
 76
     0
 77
     2
 78
   300
148
0.0
149
0.0
100
AcDbLayout
  1
ly2
 70
     1
 71
     2
 10
0.0
 20
0.0
 11
12.0
 21
9.0
 12
0.0
 22
0.0
 32
0.0
 14
0.0
 24
0.0
 34
0.0
 15
0.0
 25
0.0
 35
0.0
146
0.0
 13
0.0
 23
0.0
 33
0.0
 16
1.0
 26
0.0
 36
0.0
 17
0.0
 27
1.0
 37
0.0
 76
     0
330
D6
  0
MATERIAL
  5
EE
102
{ACAD_REACTORS
330
6A
102
}
330
6A
100
AcDbMaterial
  1
ByBlock
  0
MATERIAL
  5
ED
102
{ACAD_REACTORS
330
6A
102
}
330
6A
100
AcDbMaterial
  1
ByLayer
  0
MATERIAL
  5
EF
102
{ACAD_REACTORS
330
6A
102
}
330
6A
100
AcDbMaterial
  1
Global
  0
MLINESTYLE
  5
18
102
{ACAD_REACTORS
330
17
102
}
330
17
100
AcDbMlineStyle
  2
STANDARD
 70
     0
  3

 62
   256
 51
90.0
 52
90.0
 71
     2
 49
0.5
 62
   256
  6
BYLAYER
 49
-0.5
 62
   256
  6
BYLAYER
  0
ACDBPLACEHOLDER
  5
F
102
{ACAD_REACTORS
330
E
102
}
330
E
  0
TABLESTYLE
  5
7F
102
{ACAD_REACTORS
330
7E
102
}
330
7E
100
AcDbTableStyle
  3
Standard
 70
     0
 71
     0
 40
1.5
 41
1.5
280
     0
281
     0
  7
Standard
140
4.5
170
     2
 62
     0
 63
     7
283
     0
 90
      512
 91
        0
  1

274
    -2
284
     1
 64
     0
275
    -2
285
     1
 65
     0
276
    -2
286
     1
 66
     0
277
    -2
287
     1
 67
     0
278
    -2
288
     1
 68
     0
279
    -2
289
     1
 69
     0
  7
Standard
140
6.0
170
     5
 62
     0
 63
     7
283
     0
 90
      512
 91
        0
  1

274
    -2
284
     1
 64
     0
275
    -2
285
     1
 65
     0
276
    -2
286
     1
 66
     0
277
    -2
287
     1
 67
     0
278
    -2
288
     1
 68
     0
279
    -2
289
     1
 69
     0
  7
Standard
140
4.5
170
     5
 62
     0
 63
     7
283
     0
 90
      512
 91
        0
  1

274
    -2
284
     1
 64
     0
275
    -2
285
     1
 65
     0
276
    -2
286
     1
 66
     0
277
    -2
287
     1
 67
     0
278
    -2
288
     1
 68
     0
279
    -2
289
     1
 69
     0
  0
VISUALSTYLE
  5
F6
102
{ACAD_REACTORS
330
F0
102
}
330
F0
100
AcDbVisualStyle
  2
2dWireframe
 70
     4
 71
     0
 72
     2
 73
     1
 90
        0
 40
-0.6
 41
-30.0
 62
     5
 63
     7
421
 16777215
 74
     1
 91
        4
 64
     7
 65
   257
 75
     1
175
     1
 42
1.0
 92
        0
 66
   257
 43
1.0
 76
     1
 77
     6
 78
     2
 67
     7
 79
     5
170
     0
171
     0
290
     0
174
     0
 93
        1
 44
0.0
173
     0
291
     0
 45
0.0
  0
VISUALSTYLE
  5
F8
102
{ACAD_REACTORS
330
F0
102
}
330
F0
100
AcDbVisualStyle
  2
3D Hidden
 70
     6
 71
     1
 72
     2
 73
     2
 90
        0
 40
-0.6
 41
-30.0
 62
     5
 63
     7
421
 16777215
 74
     2
 91
        2
 64
     7
 65
   257
 75
     2
175
     1
 42
40.0
 92
        0
 66
   257
 43
1.0
 76
     1
 77
     6
 78
     2
 67
     7
 79
     3
170
     0
171
     0
290
     0
174
     0
 93
        1
 44
0.0
173
     0
291
     0
 45
0.0
  0
VISUALSTYLE
  5
F7
102
{ACAD_REACTORS
330
F0
102
}
330
F0
100
AcDbVisualStyle
  2
3dWireframe
 70
     5
 71
     0
 72
     2
 73
     1
 90
        0
 40
-0.6
 41
-30.0
 62
     5
 63
     7
421
 16777215
 74
     1
 91
        4
 64
     7
 65
   257
 75
     1
175
     1
 42
1.0
 92
        0
 66
   257
 43
1.0
 76
     1
 77
     6
 78
     2
 67
     7
 79
     5
170
     0
171
     0
290
     0
174
     0
 93
        1
 44
0.0
173
     0
291
     0
 45
0.0
  0
VISUALSTYLE
  5
F5
102
{ACAD_REACTORS
330
F0
102
}
330
F0
100
AcDbVisualStyle
  2
Basic
 70
     7
 71
     1
 72
     0
 73
     1
 90
        0
 40
-0.6
 41
-30.0
 62
     5
 63
     7
421
 16777215
 74
     0
 91
        4
 64
     7
 65
   257
 75
     1
175
     1
 42
1.0
 92
        8
 66
     7
 43
1.0
 76
     1
 77
     6
 78
     2
 67
     7
 79
     5
170
     0
171
     0
290
     0
174
     0
 93
        1
 44
0.0
173
     0
291
     1
 45
0.0
  0
VISUALSTYLE
  5
FC
102
{ACAD_REACTORS
330
F0
102
}
330
F0
100
AcDbVisualStyle
  2
Brighten
 70
    12
 71
     2
 72
     2
 73
     1
 90
        0
 40
-0.6
 41
-30.0
 62
     5
 63
     7
421
 16777215
 74
     1
 91
        4
 64
     7
 65
   257
 75
     1
175
     1
 42
1.0
 92
        8
 66
     7
 43
1.0
 76
     1
 77
     6
 78
     2
 67
     7
 79
     5
170
     0
171
     0
290
     0
174
     0
 93
        1
 44
50.0
173
     0
291
     1
 45
0.0
  0
VISUALSTYLE
  5
100
102
{ACAD_REACTORS
330
F0
102
}
330
F0
100
AcDbVisualStyle
  2
ColorChange
 70
    16
 71
     2
 72
     2
 73
     3
 90
        0
 40
-0.6
 41
-30.0
 62
     5
 63
     8
421
  8421504
 74
     1
 91
        4
 64
     7
 65
   257
 75
     1
175
     1
 42
1.0
 92
        8
 66
     8
424
  8421504
 43
1.0
 76
     1
 77
     6
 78
     2
 67
     7
 79
     5
170
     0
171
     0
290
     0
174
     0
 93
        1
 44
0.0
173
     0
291
     1
 45
0.0
  0
VISUALSTYLE
  5
F9
102
{ACAD_REACTORS
330
F0
102
}
330
F0
100
AcDbVisualStyle
  2
Conceptual
 70
     9
 71
     3
 72
     2
 73
     1
 90
        0
 40
-0.6
 41
-30.0
 62
     5
 63
     7
421
 16777215
 74
     2
 91
        2
 64
     7
 65
   257
 75
     1
175
     1
 42
40.0
 92
        8
 66
     7
 43
1.0
 76
     1
 77
     6
 78
     2
 67
     7
 79
     3
170
     0
171
     0
290
     0
174
     0
 93
        1
 44
0.0
173
     0
291
     0
 45
0.0
  0
VISUALSTYLE
  5
FB
102
{ACAD_REACTORS
330
F0
102
}
330
F0
100
AcDbVisualStyle
  2
Dim
 70
    11
 71
     2
 72
     2
 73
     1
 90
        0
 40
-0.6
 41
-30.0
 62
     5
 63
     7
421
 16777215
 74
     1
 91
        4
 64
     7
 65
   257
 75
     1
175
     1
 42
1.0
 92
        8
 66
     7
 43
1.0
 76
     1
 77
     6
 78
     2
 67
     7
 79
     5
170
     0
171
     0
290
     0
174
     0
 93
        1
 44
-50.0
173
     0
291
     1
 45
0.0
  0
VISUALSTYLE
  5
FF
102
{ACAD_REACTORS
330
F0
102
}
330
F0
100
AcDbVisualStyle
  2
Facepattern
 70
    15
 71
     2
 72
     2
 73
     1
 90
        0
 40
-0.6
 41
-30.0
 62
     5
 63
     7
421
 16777215
 74
     1
 91
        4
 64
     7
 65
   257
 75
     1
175
     1
 42
1.0
 92
        8
 66
     7
 43
1.0
 76
     1
 77
     6
 78
     2
 67
     7
 79
     5
170
     0
171
     0
290
     0
174
     0
 93
        1
 44
0.0
173
     0
291
     1
 45
0.0
  0
VISUALSTYLE
  5
F1
102
{ACAD_REACTORS
330
F0
102
}
330
F0
100
AcDbVisualStyle
  2
Flat
 70
     0
 71
     2
 72
     1
 73
     1
 90
        2
 40
-0.6
 41
30.0
 62
     5
 63
     7
421
 16777215
 74
     0
 91
        4
 64
     7
 65
   257
 75
     1
175
     1
 42
1.0
 92
        8
 66
     7
 43
1.0
 76
     1
 77
     6
 78
     2
 67
     7
 79
     5
170
     0
171
     0
290
     0
174
     0
 93
        1
 44
0.0
173
     0
291
     1
 45
0.0
  0
VISUALSTYLE
  5
F2
102
{ACAD_REACTORS
330
F0
102
}
330
F0
100
AcDbVisualStyle
  2
FlatWithEdges
 70
     1
 71
     2
 72
     1
 73
     1
 90
        2
 40
-0.6
 41
30.0
 62
     5
 63
     7
421
 16777215
 74
     1
 91
        4
 64
     7
 65
   257
 75
     1
175
     1
 42
1.0
 92
        0
 66
   257
 43
1.0
 76
     1
 77
     6
 78
     2
 67
     7
 79
     5
170
     0
171
     0
290
     0
174
     0
 93
        1
 44
0.0
173
     0
291
     1
 45
0.0
  0
VISUALSTYLE
  5
F3
102
{ACAD_REACTORS
330
F0
102
}
330
F0
100
AcDbVisualStyle
  2
Gouraud
 70
     2
 71
     2
 72
     2
 73
     1
 90
        2
 40
-0.6
 41
30.0
 62
     5
 63
     7
421
 16777215
 74
     0
 91
        4
 64
     7
 65
   257
 75
     1
175
     1
 42
1.0
 92
        0
 66
     7
 43
1.0
 76
     1
 77
     6
 78
     2
 67
     7
 79
     5
170
     0
171
     0
290
     0
174
     0
 93
        1
 44
0.0
173
     0
291
     1
 45
0.0
  0
VISUALSTYLE
  5
F4
102
{ACAD_REACTORS
330
F0
102
}
330
F0
100
AcDbVisualStyle
  2
GouraudWithEdges
 70
     3
 71
     2
 72
     2
 73
     1
 90
        2
 40
-0.6
 41
30.0
 62
     5
 63
     7
421
 16777215
 74
     1
 91
        4
 64
     7
 65
   257
 75
     1
175
     1
 42
1.0
 92
        0
 66
   257
 43
1.0
 76
     1
 77
     6
 78
     2
 67
     7
 79
     5
170
     0
171
     0
290
     0
174
     0
 93
        1
 44
0.0
173
     0
291
     1
 45
0.0
  0
VISUALSTYLE
  5
FE
102
{ACAD_REACTORS
330
F0
102
}
330
F0
100
AcDbVisualStyle
  2
Linepattern
 70
    14
 71
     2
 72
     2
 73
     1
 90
        0
 40
-0.6
 41
-30.0
 62
     5
 63
     7
421
 16777215
 74
     1
 91
        4
 64
     7
 65
   257
 75
     7
175
     7
 42
1.0
 92
        8
 66
     7
 43
1.0
 76
     1
 77
     6
 78
     2
 67
     7
 79
     5
170
     0
171
     0
290
     0
174
     0
 93
        1
 44
0.0
173
     0
291
     1
 45
0.0
  0
VISUALSTYLE
  5
FA
102
{ACAD_REACTORS
330
F0
102
}
330
F0
100
AcDbVisualStyle
  2
Realistic
 70
     8
 71
     2
 72
     2
 73
     1
 90
        0
 40
-0.6
 41
-30.0
 62
     5
 63
     7
421
 16777215
 74
     1
 91
        0
 64
     7
 65
   257
 75
     1
175
     1
 42
1.0
 92
        8
 66
     8
424
  7895160
 43
1.0
 76
     1
 77
     6
 78
     2
 67
     7
 79
     5
170
     0
171
     0
290
     0
174
     0
 93
       13
 44
0.0
173
     0
291
     0
 45
0.0
  0
VISUALSTYLE
  5
FD
102
{ACAD_REACTORS
330
F0
102
}
330
F0
100
AcDbVisualStyle
  2
Thicken
 70
    13
 71
     2
 72
     2
 73
     1
 90
        0
 40
-0.6
 41
-30.0
 62
     5
 63
     7
421
 16777215
 74
     1
 91
        4
 64
     7
 65
   257
 75
     1
175
     1
 42
1.0
 92
       12
 66
     7
 43
1.0
 76
     1
 77
     6
 78
     2
 67
     7
 79
     5
170
     0
171
     0
290
     0
174
     0
 93
        1
 44
0.0
173
     0
291
     1
 45
0.0
  0
DICTIONARYVAR
  5
84
102
{ACAD_REACTORS
330
5E
102
}
330
5E
100
DictionaryVariables
280
     0
  1
STANDARD
  0
DICTIONARYVAR
  5
5F
102
{ACAD_REACTORS
330
5E
102
}
330
5E
100
DictionaryVariables
280
     0
  1
2
  0
DICTIONARYVAR
  5
63
102
{ACAD_REACTORS
330
5E
102
}
330
5E
100
DictionaryVariables
280
     0
  1
1
0
ENDSEC
  0
EOF
